<svg width="36" height="34" viewBox="0 0 36 34" fill="none" xmlns="http://www.w3.org/2000/svg">
<path d="M18.2339 33.668C16.1506 33.668 14.1994 33.2724 12.3806 32.4813C10.5606 31.6891 8.97722 30.6191 7.63055 29.2713C6.28278 27.9246 5.21278 26.3413 4.42055 24.5213C3.62944 22.7024 3.23389 20.7513 3.23389 18.668C3.23389 16.5846 3.62944 14.633 4.42055 12.813C5.21278 10.9941 6.28278 9.41075 7.63055 8.06297C8.97722 6.7163 10.5606 5.64741 12.3806 4.8563C14.1994 4.06408 16.1506 3.66797 18.2339 3.66797C20.3172 3.66797 22.2689 4.06408 24.0889 4.8563C25.9078 5.64741 27.4911 6.7163 28.8389 8.06297C30.1856 9.41075 31.255 10.9941 32.0472 12.813C32.8383 14.633 33.2339 16.5846 33.2339 18.668C33.2339 20.7513 32.8383 22.7024 32.0472 24.5213C31.255 26.3413 30.1856 27.9246 28.8389 29.2713C27.4911 30.6191 25.9078 31.6891 24.0889 32.4813C22.2689 33.2724 20.3172 33.668 18.2339 33.668ZM22.9006 25.668L25.2339 23.3346L19.9006 18.0013V10.3346H16.5672V19.3346L22.9006 25.668ZM7.56722 0.917969L9.90055 3.2513L2.81722 10.3346L0.483887 8.0013L7.56722 0.917969ZM28.9006 0.917969L35.9839 8.0013L33.6506 10.3346L26.5672 3.2513L28.9006 0.917969ZM18.2339 30.3346C21.4839 30.3346 24.2406 29.2024 26.5039 26.938C28.7683 24.6746 29.9006 21.918 29.9006 18.668C29.9006 15.418 28.7683 12.6607 26.5039 10.3963C24.2406 8.13297 21.4839 7.0013 18.2339 7.0013C14.9839 7.0013 12.2272 8.13297 9.96389 10.3963C7.69944 12.6607 6.56722 15.418 6.56722 18.668C6.56722 21.918 7.69944 24.6746 9.96389 26.938C12.2272 29.2024 14.9839 30.3346 18.2339 30.3346Z" fill="#EF5656"/>
</svg>
