<svg width="37" height="35" viewBox="0 0 37 35" fill="none" xmlns="http://www.w3.org/2000/svg">
<path d="M2.28551 12.2794V25.6423C2.28551 27.2525 2.92517 28.7968 4.06379 29.9354C5.2024 31.0741 6.74669 31.7137 8.35693 31.7137H18.7141C18.2152 31.0504 17.7952 30.3313 17.4626 29.5709H8.35693C7.31501 29.5709 6.31576 29.157 5.57901 28.4202C4.84226 27.6835 4.42836 26.6842 4.42836 25.6423V12.2794C3.72785 12.4778 2.98602 12.4778 2.28551 12.2794ZM33.7141 6.35658V16.7137C33.0508 16.2148 32.3316 15.7949 31.5712 15.4623V6.35658C31.5712 5.31466 31.1573 4.31541 30.4206 3.57866C29.6838 2.84191 28.6846 2.42801 27.6426 2.42801H8.35693C7.5857 2.42778 6.83147 2.65456 6.18824 3.08007C5.54502 3.50558 5.04127 4.11101 4.73979 4.82087C4.03267 4.5548 3.26373 4.49874 2.52551 4.65944C2.89337 3.39755 3.66063 2.28903 4.7121 1.5003C5.76357 0.711567 7.04252 0.285182 8.35693 0.285156H27.6426C29.2529 0.285156 30.7972 0.924823 31.9358 2.06344C33.0744 3.20205 33.7141 4.74634 33.7141 6.35658ZM11.9284 17.428H19.9998C19.3166 18.0623 18.7188 18.7826 18.2212 19.5709H11.9284C11.6442 19.5709 11.3717 19.458 11.1707 19.2571C10.9698 19.0561 10.8569 18.7836 10.8569 18.4994C10.8569 18.2153 10.9698 17.9428 11.1707 17.7418C11.3717 17.5409 11.6442 17.428 11.9284 17.428ZM0.856934 8.49944C0.856934 9.16248 1.12033 9.79837 1.58917 10.2672C2.05801 10.736 2.69389 10.9994 3.35693 10.9994C4.01997 10.9994 4.65586 10.736 5.1247 10.2672C5.59354 9.79837 5.85693 9.16248 5.85693 8.49944C5.85693 7.8364 5.59354 7.20052 5.1247 6.73167C4.65586 6.26283 4.01997 5.99944 3.35693 5.99944C2.69389 5.99944 2.05801 6.26283 1.58917 6.73167C1.12033 7.20052 0.856934 7.8364 0.856934 8.49944ZM11.9284 11.7137C11.6442 11.7137 11.3717 11.8266 11.1707 12.0275C10.9698 12.2285 10.8569 12.501 10.8569 12.7852C10.8569 13.0693 10.9698 13.3418 11.1707 13.5428C11.3717 13.7437 11.6442 13.8566 11.9284 13.8566H24.0712C24.3554 13.8566 24.6279 13.7437 24.8288 13.5428C25.0298 13.3418 25.1426 13.0693 25.1426 12.7852C25.1426 12.501 25.0298 12.2285 24.8288 12.0275C24.6279 11.8266 24.3554 11.7137 24.0712 11.7137H11.9284ZM36.5712 25.2852C36.5712 27.7479 35.5929 30.1097 33.8515 31.8511C32.1101 33.5926 29.7482 34.5709 27.2855 34.5709C24.8228 34.5709 22.4609 33.5926 20.7195 31.8511C18.9781 30.1097 17.9998 27.7479 17.9998 25.2852C17.9998 22.8224 18.9781 20.4606 20.7195 18.7192C22.4609 16.9778 24.8228 15.9994 27.2855 15.9994C29.7482 15.9994 32.1101 16.9778 33.8515 18.7192C35.5929 20.4606 36.5712 22.8224 36.5712 25.2852ZM27.9998 19.5709C27.9998 19.3814 27.9245 19.1997 27.7906 19.0658C27.6566 18.9318 27.4749 18.8566 27.2855 18.8566C27.0961 18.8566 26.9144 18.9318 26.7804 19.0658C26.6465 19.1997 26.5712 19.3814 26.5712 19.5709V24.5709H21.5712C21.3818 24.5709 21.2001 24.6461 21.0661 24.7801C20.9322 24.914 20.8569 25.0957 20.8569 25.2852C20.8569 25.4746 20.9322 25.6563 21.0661 25.7902C21.2001 25.9242 21.3818 25.9994 21.5712 25.9994H26.5712V30.9994C26.5712 31.1889 26.6465 31.3706 26.7804 31.5045C26.9144 31.6385 27.0961 31.7137 27.2855 31.7137C27.4749 31.7137 27.6566 31.6385 27.7906 31.5045C27.9245 31.3706 27.9998 31.1889 27.9998 30.9994V25.9994H32.9998C33.1892 25.9994 33.3709 25.9242 33.5049 25.7902C33.6388 25.6563 33.7141 25.4746 33.7141 25.2852C33.7141 25.0957 33.6388 24.914 33.5049 24.7801C33.3709 24.6461 33.1892 24.5709 32.9998 24.5709H27.9998V19.5709Z" fill="#428DD8"/>
</svg>
