<svg width="125" height="48" viewBox="0 0 125 48" fill="none" xmlns="http://www.w3.org/2000/svg">
<g clip-path="url(#clip0_1343:953)">
<path d="M99.0371 0.506596C96.2509 1.01319 95.6176 2.65963 95.6176 2.65963C94.8578 4.17942 96.2509 8.10554 99.0371 12.9182C99.797 12.7916 104.61 12.1583 109.802 12.285C114.994 12.4116 117.907 13.0449 119.174 13.8047C120.44 14.5646 120.06 16.0844 119.934 16.591C120.947 14.9446 122.973 10.8918 123.48 8.48549C124.113 6.07916 123.606 4.93931 123.48 4.68602C122.973 3.29288 121.833 2.65963 121.58 2.53298C118.794 1.13984 114.235 0.633245 111.322 0.379947C109.802 0.126649 108.156 0 106.509 0C103.85 0 101.443 0.126649 99.0371 0.506596Z" fill="url(#paint0_linear_1343:953)"/>
<path d="M125 9.49874C125.253 7.3457 124.746 5.82591 124.493 5.31932C124.113 4.55942 123.86 4.05283 123.353 3.54623C123.1 3.29293 122.847 3.03963 122.467 2.78634C122.087 2.53304 121.707 2.40639 121.707 2.40639C121.96 2.53304 123.1 3.16628 123.606 4.55942C123.733 4.81272 124.24 5.95256 123.606 8.35889C122.973 10.7652 120.947 14.818 120.06 16.4644C119.807 16.8444 114.235 26.5964 111.575 26.5964C108.915 26.5964 103.09 18.7441 101.697 16.7177C100.81 15.3246 99.9236 14.0581 99.1637 12.7916C96.3775 8.1056 94.9844 4.05283 95.7442 2.53304C95.7442 2.53304 96.3775 1.01325 99.1637 0.380005C99.1637 0.380005 99.1637 0.380005 99.0371 0.380005C91.185 1.51985 87.6389 3.92618 86.3724 5.19267C86.3724 5.19267 84.726 6.71246 84.8527 8.99214C84.9793 12.0317 86.879 16.3378 87.6389 17.9842C89.4119 21.5304 91.9449 25.2032 92.5781 26.2164C93.9712 28.1161 96.3775 31.0291 98.7838 33.3088C100.683 35.0818 103.216 37.2349 105.369 38.3747C106.636 39.008 108.029 39.008 108.156 39.008C108.536 39.008 110.309 38.8813 111.955 37.4882C113.981 35.7151 115.881 32.1689 117.274 29.8892C119.427 26.3431 121.074 22.1636 121.96 19.884C122.72 18.4908 124.493 13.2982 125 9.49874Z" fill="url(#paint1_linear_1343:953)"/>
<path d="M7.34581 38.8813C7.47245 39.0079 8.86556 39.2612 10.7653 39.2612C11.6518 39.2612 12.7916 39.1346 13.9314 38.8813H14.0581V38.7546C18.8706 31.409 20.517 24.4433 21.1503 20.3905C21.4036 18.7441 21.5302 16.8444 21.5302 16.8444L16.4643 17.7309C16.0844 20.3905 14.6913 28.2428 11.0186 34.5752L10.8919 34.8285L10.7653 34.5752C8.23233 30.2692 6.83922 25.8364 6.07934 22.5436C5.69941 20.8971 5.31947 18.7441 5.19282 17.7309L0.126965 17.0977C0.000318401 17.9842 0.380258 28.1161 7.34581 38.8813Z" fill="#004B2C"/>
<path d="M60.0306 29.7626C59.9039 29.636 58.0042 28.6228 57.4976 28.1162C57.371 27.9895 57.371 27.9895 57.371 27.9895C57.371 27.9895 57.371 27.8629 57.4976 27.7362C58.0042 27.2296 59.6506 26.2165 59.7773 26.2165C59.9039 25.9632 60.0306 25.2033 60.0306 23.8101C60.0306 21.6571 59.6506 20.0106 58.5108 18.8708C57.371 17.731 55.7246 17.2244 53.6982 17.2244H42.8066V39.2613H54.0782C56.1045 39.2613 57.7509 38.7547 58.8907 37.4882C60.0306 36.2217 60.4105 34.5753 60.4105 32.4223C60.5371 30.9025 60.1572 30.0159 60.0306 29.7626ZM47.7459 21.5304H52.8117C53.9515 21.5304 54.5848 21.6571 54.7114 21.9104C54.9647 22.037 55.218 22.417 55.218 23.6835C55.218 24.8233 54.9647 25.2033 54.7114 25.4566C54.4581 25.7099 53.8249 25.8365 52.6851 25.8365H47.7459V21.5304ZM54.9647 34.1953C54.7114 34.4486 53.9515 34.5753 52.8117 34.5753H47.6192V29.7626H52.8117C53.9515 29.7626 54.7114 29.8893 54.9647 30.1426C55.218 30.3959 55.4713 30.7758 55.4713 32.169C55.4713 33.5621 55.218 34.0687 54.9647 34.1953Z" fill="#004B2C"/>
<path d="M32.422 39.2613C36.728 39.2613 39.5142 38.3748 39.5142 38.3748L40.0208 38.2481L39.3876 33.6888L38.6277 33.8154C38.6277 33.8154 38.501 33.8154 38.1211 33.9421C37.2346 34.0687 35.3349 34.4487 33.3085 34.4487C32.0421 34.4487 31.0289 34.4487 30.3957 34.1954C29.8891 34.0687 29.5091 33.9421 29.2558 33.6888C28.8759 33.3088 28.6226 32.8022 28.3693 31.9157C28.2427 31.0291 28.116 29.7626 28.116 28.2428C28.116 26.7231 28.116 25.7099 28.2427 24.8233C28.3693 24.1901 28.496 23.6835 28.7493 23.3035C29.0026 22.7969 29.3825 22.5436 30.1424 22.2903C30.9022 22.037 31.9154 22.037 33.3085 22.037C34.7016 22.037 35.9681 22.1637 36.9813 22.2903C37.4879 22.417 37.8678 22.417 38.2477 22.417C38.501 22.5436 38.6277 22.5436 38.6277 22.5436L39.3876 22.6703L40.0208 17.9843L39.3876 17.8576C39.3876 17.8576 35.9681 16.9711 32.2954 16.9711C30.649 16.9711 29.2558 17.0977 27.9894 17.4777C26.2163 17.9843 24.6966 19.1241 23.9367 20.7705C23.0502 22.5436 22.7969 24.8233 22.7969 28.1162C22.7969 32.4223 23.4301 35.2086 24.9499 36.9816C25.7097 37.8682 26.8496 38.5014 27.9894 38.8814C29.3825 39.1347 30.7756 39.2613 32.422 39.2613Z" fill="#004B2C"/>
<path d="M64.2091 38.3748L63.7025 38.2481L64.2091 34.322H64.3357L64.8423 34.4487C64.969 34.4487 65.9822 34.702 67.2486 34.8286C68.6417 35.0819 70.4148 35.2085 71.9346 35.2085C72.0612 35.2085 72.0612 35.2085 72.1878 35.2085C73.3277 35.2085 74.4675 35.2085 75.2274 34.8286C75.9872 34.4487 76.4938 34.0687 76.4938 32.6756C76.4938 31.1558 76.2405 30.7758 75.734 30.5225C75.2274 30.2692 73.9609 30.2692 72.3145 30.1426C70.0348 30.0159 67.8819 30.0159 66.2354 29.1294C64.589 28.3695 63.4492 26.5964 63.4492 23.8101V23.6835C63.4492 21.2771 64.2091 19.3774 65.7289 18.3642C67.2486 17.351 69.4016 16.9711 72.1878 16.9711C76.1139 16.9711 79.5334 17.731 79.5334 17.731L80.1666 17.8576L79.5334 21.7837H79.4067H78.5202C78.5202 21.7837 77.6337 21.6571 76.3672 21.4038C75.1007 21.2771 73.581 21.0238 72.3145 21.0238C72.1878 21.0238 71.9346 21.0238 71.8079 21.0238H71.6813C70.5414 21.0238 69.5283 21.0238 68.7684 21.4038C68.0085 21.7837 67.6286 22.1637 67.6286 23.4302C67.6286 24.8233 68.0085 25.2033 68.6417 25.4566C69.275 25.7099 70.5414 25.7099 71.9346 25.8365C74.2142 25.9632 76.2405 25.9632 78.0136 26.7231C79.7866 27.483 80.7998 29.256 80.7998 32.169V32.2956C80.7998 35.0819 79.9133 36.9816 78.3935 37.9948C76.7471 39.008 74.7208 39.2613 72.1878 39.2613C67.8819 39.2613 64.2091 38.3748 64.2091 38.3748Z" fill="#004B2C"/>
<path d="M11.7786 43.4407L10.2589 48H8.99241L7.47266 43.4407H8.23253L9.499 47.3668H9.62564L10.8921 43.4407H11.7786Z" fill="#004B2C"/>
<path d="M12.2852 43.4407H13.045V44.0739H12.2852V43.4407ZM12.2852 44.7072H13.045V48H12.2852V44.7072Z" fill="#004B2C"/>
<path d="M16.9708 47.8733C16.4643 48 15.9577 48.1266 15.4511 48.1266C14.1846 48.1266 13.8047 47.4934 13.8047 46.4802C13.8047 45.2137 14.4379 44.8337 15.4511 44.8337C16.4643 44.8337 17.0975 45.3403 17.0975 46.3535V46.7335H14.6912C14.6912 47.3667 14.9445 47.7467 15.4511 47.7467C15.831 47.7467 16.4643 47.62 16.8442 47.4934L16.9708 47.8733ZM16.211 46.1002C16.211 45.3403 15.9577 45.087 15.4511 45.087C14.9445 45.087 14.6912 45.3403 14.6912 46.1002H16.211Z" fill="#004B2C"/>
<path d="M18.8716 43.9473V44.7072H19.6315V45.2138H18.8716V46.8603C18.8716 47.3669 18.8716 47.4935 19.1249 47.4935C19.1249 47.4935 19.1249 47.4935 19.2516 47.4935C19.3782 47.4935 19.5049 47.4935 19.7582 47.3669L19.6315 47.8735C19.2516 48.0001 19.1249 48.0001 18.9983 48.0001C18.2384 48.0001 18.1117 47.6202 18.1117 46.8603V45.0872H17.4785V44.5806H18.1117V43.8207H18.8716V43.9473Z" fill="#004B2C"/>
<path d="M22.9229 47.8734C22.6696 47.8734 22.1631 48 21.7831 48C20.39 48 20.1367 47.4934 20.1367 46.3536C20.1367 45.2137 20.5167 44.5805 21.7831 44.7071C22.1631 44.7071 22.6696 44.8338 22.9229 44.8338V45.2137C22.7963 45.2137 22.0364 45.0871 21.7831 45.0871C21.0232 45.0871 20.8966 45.3404 20.8966 46.3536C20.8966 47.3668 21.0232 47.6201 21.7831 47.6201C22.0364 47.6201 22.543 47.4934 22.9229 47.4934V47.8734Z" fill="#004B2C"/>
<path d="M26.7225 46.2269C26.7225 47.3667 26.3426 48 25.0761 48C23.8096 48 23.4297 47.4934 23.4297 46.2269C23.4297 45.087 23.9363 44.5804 25.0761 44.5804C26.0893 44.7071 26.7225 45.087 26.7225 46.2269ZM25.0761 47.62C25.836 47.62 25.9626 47.2401 25.9626 46.3535C25.9626 45.467 25.5827 45.2137 25.0761 45.2137C24.4429 45.2137 24.1896 45.467 24.1896 46.3535C24.1896 47.2401 24.3162 47.62 25.0761 47.62Z" fill="#004B2C"/>
<path d="M27.4824 44.9605C27.989 44.7072 28.4956 44.7072 29.0022 44.7072C29.3821 44.7072 29.7621 44.8338 29.8887 44.9605C30.3953 44.8338 30.7752 44.7072 31.1552 44.7072C32.295 44.7072 32.6749 45.2137 32.6749 46.3536V48H31.9151V46.3536C31.9151 45.467 31.7884 45.2138 31.2818 45.2138C30.9019 45.2138 30.7752 45.2137 30.3953 45.3404C30.5219 45.5937 30.5219 45.9736 30.5219 46.3536V48H29.7621V46.3536C29.7621 45.467 29.6354 45.2138 29.1288 45.2138C28.8755 45.2138 28.6222 45.3404 28.3689 45.3404V48.1267H27.6091V44.9605H27.4824Z" fill="#004B2C"/>
<path d="M34.3224 43.4407V44.8338C34.449 44.8338 34.829 44.7072 35.0823 44.7072C36.2221 44.7072 36.602 45.2138 36.602 46.3536C36.602 47.4934 36.2221 48.1267 34.7023 48.1267C34.3224 48.1267 34.0691 48.1267 33.5625 48.1267V43.5673H34.3224V43.4407ZM34.3224 47.4934C34.449 47.4934 34.5757 47.4934 34.7023 47.4934H34.829C35.7155 47.4934 35.8421 47.1135 35.8421 46.2269C35.8421 45.3404 35.7155 45.0871 35.2089 45.0871C34.9556 45.0871 34.7023 45.2138 34.449 45.2138V47.4934H34.3224Z" fill="#004B2C"/>
<path d="M37.4877 44.7071C38.1209 44.7071 38.5008 44.5804 38.8808 44.5804C39.7673 44.5804 40.1472 44.9604 40.1472 45.5936V47.62C39.7673 47.7466 39.1341 47.8733 38.3742 47.8733C37.6143 47.8733 37.2344 47.4934 37.2344 46.8601C37.2344 46.3535 37.6143 45.9736 38.5008 45.8469L39.3874 45.7203V45.467C39.3874 45.087 39.2607 44.9604 38.8808 44.9604C38.5008 44.9604 38.2475 44.9604 37.6143 45.087L37.4877 44.7071ZM39.2607 46.3535L38.5008 46.4802C38.1209 46.4802 37.9943 46.7335 37.9943 46.9868C37.9943 47.2401 38.1209 47.4934 38.3742 47.4934C38.7541 47.4934 39.0074 47.3667 39.2607 47.3667V46.3535Z" fill="#004B2C"/>
<path d="M40.9082 44.9605C41.4148 44.7072 41.9214 44.7072 42.428 44.7072C43.5678 44.7072 44.0744 45.2137 44.0744 46.3536V48H43.3145V46.3536C43.3145 45.467 43.0612 45.2138 42.5546 45.2138C42.3013 45.2138 42.048 45.3404 41.7947 45.3404V48.1267H41.0349V44.9605H40.9082Z" fill="#004B2C"/>
<path d="M44.9609 48V43.4407H45.7208V45.847H46.1008L47.2406 44.7072H48.1271L46.6073 46.227L48.1271 48H47.2406L46.1008 46.6069H45.7208V48H44.9609Z" fill="#004B2C"/>
<path d="M51.166 47.3667C51.6726 47.4934 52.0525 47.4934 52.4325 47.4934H52.5591C53.0657 47.4934 53.4457 47.3667 53.4457 46.9868C53.4457 46.8601 53.4457 46.7335 53.1924 46.4802C53.0657 46.3535 52.4325 45.9736 52.0525 45.7203C51.4193 45.3403 51.166 45.0871 51.166 44.4538V44.3272C51.166 43.8206 51.6726 43.314 52.9391 43.314C53.5723 43.314 53.9523 43.314 54.3322 43.4406L54.2056 43.9472C53.699 43.8206 53.4457 43.8206 52.9391 43.8206C52.3058 43.8206 52.0525 44.0739 52.0525 44.3272C52.0525 44.3272 52.0525 44.3272 52.0525 44.4538C52.0525 44.7071 52.1792 44.8338 52.6858 45.0871C53.1924 45.3403 53.699 45.7203 53.9523 45.8469C54.3322 46.1002 54.4589 46.6068 54.4589 46.8601C54.4589 47.8733 53.4457 47.8733 52.8124 48C52.6858 48 52.6858 48 52.5591 48C52.0525 48 51.546 47.8733 51.166 47.8733V47.3667Z" fill="#004B2C"/>
<path d="M58.131 47.8733C57.6244 48 57.1178 48.1266 56.6112 48.1266C55.3448 48.1266 54.9648 47.4934 54.9648 46.4802C54.9648 45.2137 55.5981 44.8337 56.6112 44.8337C57.6244 44.8337 58.2576 45.3403 58.2576 46.3535V46.7335H55.8514C55.8514 47.3667 56.1047 47.7467 56.6112 47.7467C56.9912 47.7467 57.6244 47.62 58.0044 47.4934L58.131 47.8733ZM57.3711 46.1002C57.3711 45.3403 57.1178 45.087 56.6112 45.087C56.1047 45.087 55.8514 45.3403 55.8514 46.1002H57.3711Z" fill="#004B2C"/>
<path d="M61.5499 47.8734C61.2966 47.8734 60.79 48 60.4101 48C59.017 48 58.7637 47.4934 58.7637 46.3536C58.7637 45.2137 59.1436 44.5805 60.4101 44.7071C60.79 44.7071 61.2966 44.8338 61.5499 44.8338V45.2137C61.4232 45.2137 60.6633 45.0871 60.4101 45.0871C59.6502 45.0871 59.5235 45.3404 59.5235 46.3536C59.5235 47.3668 59.6502 47.6201 60.4101 47.6201C60.6633 47.6201 61.1699 47.4934 61.5499 47.4934V47.8734Z" fill="#004B2C"/>
<path d="M65.2231 47.7467C64.7165 48 64.2099 48 63.83 48C62.6902 48 62.1836 47.4934 62.1836 46.3535V44.7071H62.9435V46.3535C62.9435 47.2401 63.1968 47.4934 63.7033 47.4934C63.9566 47.4934 64.2099 47.3667 64.3366 47.3667V44.5804H65.0965V47.7467H65.2231Z" fill="#004B2C"/>
<path d="M65.9841 44.9605C66.4907 44.7072 66.9972 44.7072 67.5038 44.7072C67.6305 44.7072 67.7571 44.7072 68.0104 44.7072L67.8838 45.2138C67.6305 45.2138 67.5038 45.2138 67.3772 45.2138C67.1239 45.2138 66.8706 45.3404 66.6173 45.3404V48.1267H65.8574V44.9605H65.9841Z" fill="#004B2C"/>
<path d="M68.7695 43.4407H69.5294V44.0739H68.7695V43.4407ZM68.7695 44.7072H69.5294V48H68.7695V44.7072Z" fill="#004B2C"/>
<path d="M71.4283 43.9473V44.7072H72.1881V45.2138H71.4283V46.8602C71.4283 47.3668 71.4283 47.4934 71.6815 47.4934C71.6815 47.4934 71.6815 47.4934 71.8082 47.4934C71.9348 47.4934 72.0615 47.4934 72.3148 47.3668L72.1881 48C71.8082 48.1267 71.6815 48.1267 71.5549 48.1267C70.795 48.1267 70.6684 47.7467 70.6684 46.9868V45.2138H70.0352V44.7072H70.6684V43.9473H71.4283Z" fill="#004B2C"/>
<path d="M72.8223 43.4407H73.5821V44.0739H72.8223V43.4407ZM72.8223 44.7072H73.5821V48H72.8223V44.7072Z" fill="#004B2C"/>
<path d="M77.5079 47.8733C77.0014 48 76.4948 48.1266 75.9882 48.1266C74.7217 48.1266 74.3418 47.4934 74.3418 46.4802C74.3418 45.2137 74.975 44.8337 75.8615 44.8337C76.8747 44.8337 77.5079 45.3403 77.5079 46.3535V46.7335H75.1017C75.1017 47.3667 75.355 47.7467 75.8615 47.7467C76.2415 47.7467 76.8747 47.62 77.2546 47.4934L77.5079 47.8733ZM76.7481 46.1002C76.7481 45.3403 76.4948 45.087 75.9882 45.087C75.4816 45.087 75.2283 45.3403 75.2283 46.1002H76.7481Z" fill="#004B2C"/>
<path d="M78.1423 47.4934C78.6489 47.62 78.9022 47.62 79.0288 47.62H79.1555C79.4087 47.62 79.662 47.4934 79.662 47.2401C79.662 47.1134 79.662 46.9868 79.5354 46.8601C79.4087 46.7335 79.0288 46.4802 78.7755 46.3535C78.3956 46.1002 78.1423 45.8469 78.1423 45.467C78.1423 45.467 78.1423 45.467 78.1423 45.3403C78.1423 44.9604 78.5222 44.5804 79.4087 44.5804C79.7887 44.5804 79.9153 44.5804 80.5486 44.7071L80.4219 45.2137C80.042 45.087 79.7887 45.087 79.5354 45.087H79.4087C79.1555 45.087 79.0288 45.2137 79.0288 45.3403C79.0288 45.3403 79.0288 45.3403 79.0288 45.467C79.0288 45.7203 79.1554 45.7203 79.2821 45.9736C79.662 46.2269 80.042 46.4802 80.042 46.4802C80.4219 46.7335 80.4219 46.9868 80.4219 47.1134C80.4219 47.8733 79.662 47.8733 79.1555 48H79.0288C78.7755 48 78.3956 48 78.0156 47.8733L78.1423 47.4934Z" fill="#004B2C"/>
</g>
<defs>
<linearGradient id="paint0_linear_1343:953" x1="95.4465" y1="8.27254" x2="123.887" y2="8.1986" gradientUnits="userSpaceOnUse">
<stop stop-color="#004B2C"/>
<stop offset="0.9121" stop-color="#96BF21"/>
</linearGradient>
<linearGradient id="paint1_linear_1343:953" x1="89.9299" y1="0.953656" x2="121.107" y2="26.9764" gradientUnits="userSpaceOnUse">
<stop offset="0.0989011" stop-color="#96BF21"/>
<stop offset="0.6185" stop-color="#287132"/>
<stop offset="1" stop-color="#004B2C"/>
</linearGradient>
<clipPath id="clip0_1343:953">
<rect width="125" height="48" fill="white"/>
</clipPath>
</defs>
</svg>
