<svg width="113" height="112" viewBox="0 0 113 112" fill="none" xmlns="http://www.w3.org/2000/svg">
<path d="M1.5 56C1.5 25.7742 26.2742 1 56.5 1C86.7254 1 111.5 25.7742 111.5 56C111.5 70.9858 105.238 84.5822 95.4622 94.5033L56.5 107.663L17.5378 94.5033C7.76199 84.5821 1.5 70.9857 1.5 56ZM32.5312 56C32.5312 69.2179 43.2821 79.9688 56.5 79.9688C69.7179 79.9688 80.4688 69.2179 80.4688 56C80.4688 42.7821 69.7179 32.0312 56.5 32.0312C43.2821 32.0312 32.5312 42.7821 32.5312 56Z" fill="url(#paint0_linear_505_91)" stroke="url(#paint1_linear_505_91)" stroke-width="2"/>
<path d="M56.4998 95.3749C46.656 95.3749 46.656 88.8124 36.8123 88.8124C26.9685 88.8124 26.9685 95.4406 16.9933 95.3749C27.0998 105.481 41.0779 112 56.4998 112C71.9217 112 85.8996 105.481 96.0062 95.3749C86.031 95.4406 86.0967 88.8124 76.1873 88.8124C66.3435 88.8124 66.3435 95.3749 56.4998 95.3749ZM26.0071 66.8051C24.7255 65.5234 22.6489 65.5234 21.3672 66.8051C20.0856 68.0867 20.0856 70.1633 21.3672 71.445L27.9297 78.0075C29.2116 79.2891 31.288 79.2891 32.5696 78.0075C33.8513 76.7258 33.8513 74.6492 32.5696 73.3676L26.0071 66.8051ZM56.4998 26.4687H69.6248C71.4384 26.4687 72.906 25.0011 72.906 23.1874C72.906 21.3738 71.4384 19.9062 69.6248 19.9062H56.4998C54.6861 19.9062 53.2185 21.3738 53.2185 23.1874C53.2185 25.0011 54.6861 26.4687 56.4998 26.4687ZM85.0696 78.0073L91.6321 71.4448C92.9138 70.1631 92.9138 68.0865 91.6321 66.8049C90.3505 65.5232 88.2739 65.5232 86.9922 66.8049L80.4297 73.3674C79.1481 74.649 79.1481 76.7256 80.4297 78.0073C81.7116 79.2891 83.788 79.2891 85.0696 78.0073ZM86.9924 45.1948C88.2743 46.4764 90.3507 46.4764 91.6323 45.1948C92.914 43.9131 92.914 41.8365 91.6323 40.5549L85.0698 33.9924C83.7882 32.7107 81.7116 32.7107 80.4299 33.9924C79.1483 35.274 79.1483 37.3506 80.4299 38.6323L86.9924 45.1948ZM26.0071 45.1948L32.5696 38.6323C33.8513 37.3506 33.8513 35.274 32.5696 33.9924C31.288 32.7107 29.2114 32.7107 27.9297 33.9924L21.3672 40.5549C20.0856 41.8365 20.0856 43.9131 21.3672 45.1948C22.6491 46.4767 24.7255 46.4767 26.0071 45.1948ZM43.375 26.3125C45.1871 26.3125 46.6562 24.8434 46.6562 23.0312C46.6562 21.2191 45.1871 19.75 43.375 19.75C41.5629 19.75 40.0938 21.2191 40.0938 23.0312C40.0938 24.8434 41.5627 26.3125 43.375 26.3125ZM20.4062 55.8437C20.4062 54.0316 18.9371 52.5625 17.125 52.5625C15.3129 52.5625 13.8438 54.0316 13.8438 55.8437C13.8438 57.6559 15.3129 59.125 17.125 59.125C18.9371 59.125 20.4062 57.6559 20.4062 55.8437ZM95.875 52.5625C94.0629 52.5625 92.5938 54.0316 92.5938 55.8437C92.5938 57.6559 94.0629 59.125 95.875 59.125C97.6871 59.125 99.1562 57.6559 99.1562 55.8437C99.1562 54.0316 97.6871 52.5625 95.875 52.5625Z" fill="white"/>
<defs>
<linearGradient id="paint0_linear_505_91" x1="56.5" y1="-41.5486" x2="56.5" y2="145.074" gradientUnits="userSpaceOnUse">
<stop offset="0.630208" stop-color="#FFAE00"/>
<stop offset="1" stop-color="#FFCD1E"/>
</linearGradient>
<linearGradient id="paint1_linear_505_91" x1="56.5" y1="0" x2="56.5" y2="108.719" gradientUnits="userSpaceOnUse">
<stop stop-color="#FF9F00"/>
<stop offset="1" stop-color="#FFB800"/>
</linearGradient>
</defs>
</svg>
