<svg width="193" height="192" viewBox="0 0 193 192" fill="none" xmlns="http://www.w3.org/2000/svg">
<g filter="url(#filter0_dd_403_1391)">
<path d="M41.1877 76C41.1877 45.7742 65.9619 21 96.1877 21C126.413 21 151.188 45.7742 151.188 76C151.188 90.9858 144.926 104.582 135.15 114.503L96.1877 127.663L57.2256 114.503C47.4497 104.582 41.1877 90.9857 41.1877 76ZM72.219 76C72.219 89.2179 82.9698 99.9688 96.1877 99.9688C109.406 99.9688 120.156 89.2179 120.156 76C120.156 62.7821 109.406 52.0312 96.1877 52.0312C82.9698 52.0312 72.219 62.7821 72.219 76Z" fill="url(#paint0_linear_403_1391)" stroke="url(#paint1_linear_403_1391)" stroke-width="2"/>
<path d="M41.1877 76.0001C41.1877 45.7742 65.9619 21.0001 96.1877 21.0001C126.413 21.0001 151.188 45.7742 151.188 76.0001C151.188 90.9858 144.926 104.582 135.15 114.503L96.1877 127.663L57.2256 114.503C47.4497 104.582 41.1877 90.9858 41.1877 76.0001ZM72.219 76.0001C72.219 89.218 82.9698 99.9688 96.1877 99.9688C109.406 99.9688 120.156 89.218 120.156 76.0001C120.156 62.7822 109.406 52.0313 96.1877 52.0313C82.9698 52.0313 72.219 62.7822 72.219 76.0001Z" fill="url(#paint2_linear_403_1391)" stroke="url(#paint3_linear_403_1391)" stroke-width="2"/>
<path d="M96.1877 115.375C86.344 115.375 86.344 108.812 76.5002 108.812C66.6565 108.812 66.6565 115.441 56.6813 115.375C66.7877 125.481 80.7659 132 96.1877 132C111.61 132 125.588 125.481 135.694 115.375C125.719 115.441 125.785 108.812 115.875 108.812C106.031 108.812 106.031 115.375 96.1877 115.375ZM65.6951 86.8051C64.4134 85.5235 62.3368 85.5235 61.0552 86.8051C59.7735 88.0868 59.7735 90.1634 61.0552 91.445L67.6177 98.0075C68.8996 99.2892 70.9759 99.2892 72.2576 98.0075C73.5392 96.7259 73.5392 94.6493 72.2576 93.3676L65.6951 86.8051ZM96.1877 46.4687H109.313C111.126 46.4687 112.594 45.0012 112.594 43.1875C112.594 41.3738 111.126 39.9062 109.313 39.9062H96.1877C94.3741 39.9062 92.9065 41.3738 92.9065 43.1875C92.9065 45.0012 94.3741 46.4687 96.1877 46.4687ZM124.758 98.0073L131.32 91.4448C132.602 90.1632 132.602 88.0866 131.32 86.8049C130.038 85.5233 127.962 85.5233 126.68 86.8049L120.118 93.3674C118.836 94.6491 118.836 96.7257 120.118 98.0073C121.4 99.2892 123.476 99.2892 124.758 98.0073ZM126.68 65.1948C127.962 66.4765 130.039 66.4765 131.32 65.1948C132.602 63.9132 132.602 61.8366 131.32 60.5549L124.758 53.9924C123.476 52.7108 121.4 52.7108 120.118 53.9924C118.836 55.2741 118.836 57.3507 120.118 58.6323L126.68 65.1948ZM65.6951 65.1948L72.2576 58.6323C73.5392 57.3507 73.5392 55.2741 72.2576 53.9924C70.9759 52.7108 68.8993 52.7108 67.6177 53.9924L61.0552 60.5549C59.7735 61.8366 59.7735 63.9132 61.0552 65.1948C62.3371 66.4767 64.4134 66.4767 65.6951 65.1948ZM83.063 46.3126C84.8751 46.3126 86.3442 44.8434 86.3442 43.0313C86.3442 41.2192 84.8751 39.7501 83.063 39.7501C81.2508 39.7501 79.7817 41.2192 79.7817 43.0313C79.7817 44.8434 81.2506 46.3126 83.063 46.3126ZM60.0942 75.8438C60.0942 74.0317 58.6251 72.5626 56.813 72.5626C55.0008 72.5626 53.5317 74.0317 53.5317 75.8438C53.5317 77.6559 55.0008 79.1251 56.813 79.1251C58.6251 79.1251 60.0942 77.6559 60.0942 75.8438ZM135.563 72.5626C133.751 72.5626 132.282 74.0317 132.282 75.8438C132.282 77.6559 133.751 79.1251 135.563 79.1251C137.375 79.1251 138.844 77.6559 138.844 75.8438C138.844 74.0317 137.375 72.5626 135.563 72.5626Z" fill="white"/>
</g>
<defs>
<filter id="filter0_dd_403_1391" x="0.187744" y="0" width="192" height="192" filterUnits="userSpaceOnUse" color-interpolation-filters="sRGB">
<feFlood flood-opacity="0" result="BackgroundImageFix"/>
<feColorMatrix in="SourceAlpha" type="matrix" values="0 0 0 0 0 0 0 0 0 0 0 0 0 0 0 0 0 0 127 0" result="hardAlpha"/>
<feOffset dy="20"/>
<feGaussianBlur stdDeviation="20"/>
<feColorMatrix type="matrix" values="0 0 0 0 1 0 0 0 0 0.680498 0 0 0 0 0 0 0 0 0.29 0"/>
<feBlend mode="normal" in2="BackgroundImageFix" result="effect1_dropShadow_403_1391"/>
<feColorMatrix in="SourceAlpha" type="matrix" values="0 0 0 0 0 0 0 0 0 0 0 0 0 0 0 0 0 0 127 0" result="hardAlpha"/>
<feOffset dy="5"/>
<feGaussianBlur stdDeviation="5"/>
<feColorMatrix type="matrix" values="0 0 0 0 1 0 0 0 0 0.680498 0 0 0 0 0 0 0 0 0.26 0"/>
<feBlend mode="normal" in2="effect1_dropShadow_403_1391" result="effect2_dropShadow_403_1391"/>
<feBlend mode="normal" in="SourceGraphic" in2="effect2_dropShadow_403_1391" result="shape"/>
</filter>
<linearGradient id="paint0_linear_403_1391" x1="96.1877" y1="-21.5486" x2="96.1877" y2="165.074" gradientUnits="userSpaceOnUse">
<stop stop-color="#FFAE00"/>
<stop offset="1" stop-color="#FFCD1E"/>
</linearGradient>
<linearGradient id="paint1_linear_403_1391" x1="96.1877" y1="20" x2="96.1877" y2="128.719" gradientUnits="userSpaceOnUse">
<stop stop-color="#FF9F00"/>
<stop offset="1" stop-color="#FFB800"/>
</linearGradient>
<linearGradient id="paint2_linear_403_1391" x1="96.1877" y1="-21.5485" x2="96.1877" y2="165.074" gradientUnits="userSpaceOnUse">
<stop offset="0.630208" stop-color="#FFAE00"/>
<stop offset="1" stop-color="#FFCD1E"/>
</linearGradient>
<linearGradient id="paint3_linear_403_1391" x1="96.1877" y1="20.0001" x2="96.1877" y2="128.719" gradientUnits="userSpaceOnUse">
<stop stop-color="#FF9F00"/>
<stop offset="1" stop-color="#FFB800"/>
</linearGradient>
</defs>
</svg>
