<svg width="16" height="16" viewBox="0 0 16 16" fill="none" xmlns="http://www.w3.org/2000/svg">
<path d="M10.9598 8.6036L11.8134 7.75005H10.6063L3.62501 7.75005C3.5574 7.75005 3.50001 7.69266 3.50001 7.62505C3.50001 7.55744 3.5574 7.50005 3.62501 7.50005L10.6063 7.50005H11.8134L10.9598 6.6465L7.90982 3.5965C7.86133 3.54801 7.86133 3.47084 7.90982 3.42235C7.9583 3.37386 8.03547 3.37386 8.08396 3.42235L12.2027 7.5411C12.2512 7.58959 12.2512 7.66676 12.2027 7.71525L8.08396 11.834C8.03547 11.8825 7.9583 11.8825 7.90982 11.834C7.86133 11.7855 7.86133 11.7021 7.90982 11.6536L10.9598 8.6036Z" fill="#1F1F1F" stroke="#009046"/>
</svg>
