<svg width="30" height="30" viewBox="0 0 30 30" fill="none" xmlns="http://www.w3.org/2000/svg">
<path d="M15 22.5C15.425 22.5 15.7815 22.356 16.0695 22.068C16.3565 21.781 16.5 21.425 16.5 21V16.5H21.0375C21.4625 16.5 21.8125 16.356 22.0875 16.068C22.3625 15.781 22.5 15.425 22.5 15C22.5 14.575 22.356 14.2185 22.068 13.9305C21.781 13.6435 21.425 13.5 21 13.5H16.5V8.9625C16.5 8.5375 16.3565 8.1875 16.0695 7.9125C15.7815 7.6375 15.425 7.5 15 7.5C14.575 7.5 14.219 7.6435 13.932 7.9305C13.644 8.2185 13.5 8.575 13.5 9V13.5H8.9625C8.5375 13.5 8.1875 13.6435 7.9125 13.9305C7.6375 14.2185 7.5 14.575 7.5 15C7.5 15.425 7.6435 15.781 7.9305 16.068C8.2185 16.356 8.575 16.5 9 16.5H13.5V21.0375C13.5 21.4625 13.644 21.8125 13.932 22.0875C14.219 22.3625 14.575 22.5 15 22.5ZM15 30C12.925 30 10.975 29.606 9.15 28.818C7.325 28.031 5.7375 26.9625 4.3875 25.6125C3.0375 24.2625 1.969 22.675 1.182 20.85C0.394 19.025 0 17.075 0 15C0 12.925 0.394 10.975 1.182 9.15C1.969 7.325 3.0375 5.7375 4.3875 4.3875C5.7375 3.0375 7.325 1.9685 9.15 1.1805C10.975 0.3935 12.925 0 15 0C17.075 0 19.025 0.3935 20.85 1.1805C22.675 1.9685 24.2625 3.0375 25.6125 4.3875C26.9625 5.7375 28.031 7.325 28.818 9.15C29.606 10.975 30 12.925 30 15C30 17.075 29.606 19.025 28.818 20.85C28.031 22.675 26.9625 24.2625 25.6125 25.6125C24.2625 26.9625 22.675 28.031 20.85 28.818C19.025 29.606 17.075 30 15 30ZM15 27C18.325 27 21.1565 25.8315 23.4945 23.4945C25.8315 21.1565 27 18.325 27 15C27 11.675 25.8315 8.8435 23.4945 6.5055C21.1565 4.1685 18.325 3 15 3C11.675 3 8.844 4.1685 6.507 6.5055C4.169 8.8435 3 11.675 3 15C3 18.325 4.169 21.1565 6.507 23.4945C8.844 25.8315 11.675 27 15 27Z" fill="#1976D2"/>
</svg>
