<svg width="16" height="16" viewBox="0 0 16 16" fill="none" xmlns="http://www.w3.org/2000/svg">
<path d="M5.04018 8.6036L4.18663 7.75005H5.39374L12.375 7.75005C12.4426 7.75005 12.5 7.69266 12.5 7.62505C12.5 7.55744 12.4426 7.50005 12.375 7.50005L5.39374 7.50005H4.18663L5.04018 6.6465L8.09018 3.5965C8.13867 3.54801 8.13867 3.47084 8.09018 3.42235C8.0417 3.37386 7.96453 3.37386 7.91604 3.42235L3.79729 7.5411C3.7488 7.58959 3.7488 7.66676 3.79729 7.71525L7.91604 11.834C7.96453 11.8825 8.0417 11.8825 8.09018 11.834C8.13867 11.7855 8.13867 11.7021 8.09018 11.6536L5.04018 8.6036Z" fill="#1F1F1F" stroke="#009046"/>
</svg>
