<svg width="21" height="15" viewBox="0 0 21 15" fill="none" xmlns="http://www.w3.org/2000/svg">
<path d="M10.9375 7.45625C11.3604 6.98958 11.685 6.45729 11.9114 5.85938C12.1371 5.26146 12.25 4.64167 12.25 4C12.25 3.35833 12.1371 2.73854 11.9114 2.14062C11.685 1.54271 11.3604 1.01042 10.9375 0.54375C11.8125 0.660417 12.5417 1.04688 13.125 1.70312C13.7083 2.35938 14 3.125 14 4C14 4.875 13.7083 5.64062 13.125 6.29688C12.5417 6.95312 11.8125 7.33958 10.9375 7.45625ZM15.75 14.5V11.875C15.75 11.35 15.6333 10.8507 15.4 10.377C15.1667 9.90275 14.8604 9.48333 14.4812 9.11875C15.225 9.38125 15.9142 9.72017 16.5489 10.1355C17.183 10.5514 17.5 11.1313 17.5 11.875V14.5H15.75ZM17.5 8.375V6.625H15.75V4.875H17.5V3.125H19.25V4.875H21V6.625H19.25V8.375H17.5ZM7 7.5C6.0375 7.5 5.21354 7.15729 4.52813 6.47187C3.84271 5.78646 3.5 4.9625 3.5 4C3.5 3.0375 3.84271 2.21354 4.52813 1.52813C5.21354 0.842708 6.0375 0.5 7 0.5C7.9625 0.5 8.78646 0.842708 9.47188 1.52813C10.1573 2.21354 10.5 3.0375 10.5 4C10.5 4.9625 10.1573 5.78646 9.47188 6.47187C8.78646 7.15729 7.9625 7.5 7 7.5ZM0 14.5V12.05C0 11.5542 0.12775 11.0983 0.38325 10.6824C0.638167 10.267 0.977083 9.95 1.4 9.73125C2.30417 9.27917 3.22292 8.93996 4.15625 8.71362C5.08958 8.48787 6.0375 8.375 7 8.375C7.9625 8.375 8.91042 8.48787 9.84375 8.71362C10.7771 8.93996 11.6958 9.27917 12.6 9.73125C13.0229 9.95 13.3618 10.267 13.6168 10.6824C13.8723 11.0983 14 11.5542 14 12.05V14.5H0Z" fill="#1976D2"/>
</svg>
