<svg width="24" height="25" viewBox="0 0 24 25" fill="none" xmlns="http://www.w3.org/2000/svg">
<path d="M22.9027 16.5086L20.6003 14.2463V8.6716C20.631 6.6015 19.8941 4.59048 18.5258 3.00986C17.1575 1.42924 15.2502 0.385767 13.1561 0.0721169C11.9407 -0.0842897 10.7052 0.014389 9.53191 0.361569C8.35865 0.708749 7.27466 1.29645 6.35225 2.08545C5.42984 2.87445 4.69023 3.84661 4.18277 4.93707C3.67531 6.02752 3.41166 7.2112 3.40943 8.40911V14.2463L1.10707 16.5086C0.817877 16.7959 0.621765 17.1602 0.54325 17.5558C0.464736 17.9514 0.507303 18.3609 0.66563 18.733C0.823957 19.1052 1.09102 19.4234 1.43343 19.648C1.77584 19.8727 2.17841 19.9937 2.59081 19.9959H6.88854V20.4209C6.94829 21.6898 7.52035 22.8838 8.47937 23.7414C9.4384 24.5989 10.7062 25.0499 12.0049 24.9956C13.3036 25.0499 14.5714 24.5989 15.5304 23.7414C16.4894 22.8838 17.0615 21.6898 17.1212 20.4209V19.9959H21.419C21.8314 19.9937 22.2339 19.8727 22.5763 19.648C22.9187 19.4234 23.1858 19.1052 23.3441 18.733C23.5025 18.3609 23.545 17.9514 23.4665 17.5558C23.388 17.1602 23.1919 16.7959 22.9027 16.5086ZM14.5631 20.4209C14.4921 21.0221 14.1865 21.5734 13.71 21.9599C13.2334 22.3464 12.6227 22.5384 12.0049 22.4958C11.3871 22.5384 10.7763 22.3464 10.2998 21.9599C9.82322 21.5734 9.51765 21.0221 9.44671 20.4209V19.9959H14.5631V20.4209Z" fill="#1976D2"/>
</svg>
