<svg width="32" height="32" viewBox="0 0 32 32" fill="none" xmlns="http://www.w3.org/2000/svg">
<mask id="mask0_1700_6214" style="mask-type:alpha" maskUnits="userSpaceOnUse" x="0" y="0" width="32" height="32">
<rect width="32" height="32" fill="#D9D9D9"/>
</mask>
<g mask="url(#mask0_1700_6214)">
<path d="M14.5 14.5H17.5V7H14.5V14.5ZM16 20.5C16.425 20.5 16.7815 20.356 17.0695 20.068C17.3565 19.781 17.5 19.425 17.5 19C17.5 18.575 17.3565 18.2185 17.0695 17.9305C16.7815 17.6435 16.425 17.5 16 17.5C15.575 17.5 15.219 17.6435 14.932 17.9305C14.644 18.2185 14.5 18.575 14.5 19C14.5 19.425 14.644 19.781 14.932 20.068C15.219 20.356 15.575 20.5 16 20.5ZM16 27.025C19.05 24.225 21.3125 21.681 22.7875 19.393C24.2625 17.106 25 15.075 25 13.3C25 10.575 24.131 8.3435 22.393 6.6055C20.656 4.8685 18.525 4 16 4C13.475 4 11.3435 4.8685 9.6055 6.6055C7.8685 8.3435 7 10.575 7 13.3C7 15.075 7.7375 17.106 9.2125 19.393C10.6875 21.681 12.95 24.225 16 27.025ZM16 31C11.975 27.575 8.969 24.3935 6.982 21.4555C4.994 18.5185 4 15.8 4 13.3C4 9.55 5.2065 6.5625 7.6195 4.3375C10.0315 2.1125 12.825 1 16 1C19.175 1 21.9685 2.1125 24.3805 4.3375C26.7935 6.5625 28 9.55 28 13.3C28 15.8 27.0065 18.5185 25.0195 21.4555C23.0315 24.3935 20.025 27.575 16 31Z" fill="#E43434"/>
</g>
</svg>
