<svg width="25" height="24" viewBox="0 0 25 24" fill="none" xmlns="http://www.w3.org/2000/svg">
<circle cx="12.5" cy="12" r="10" stroke="#1976D2" stroke-width="2"/>
<path d="M13.8096 5C13.4616 5 13.1279 5.13824 12.8818 5.38432C12.6357 5.63039 12.4975 5.96414 12.4975 6.31214C12.4975 6.66014 12.6357 6.99389 12.8818 7.23997C13.1279 7.48604 13.4616 7.62428 13.8096 7.62428C14.1576 7.62428 14.4914 7.48604 14.7375 7.23997C14.9835 6.99389 15.1218 6.66014 15.1218 6.31214C15.1218 5.96414 14.9835 5.63039 14.7375 5.38432C14.4914 5.13824 14.1576 5 13.8096 5ZM13.4947 9.17261C12.4538 9.26009 9.61078 11.5257 9.61078 11.5257C9.43583 11.6569 9.48831 11.6482 9.62828 11.8931C9.76824 12.1293 9.75074 12.1468 9.91695 12.0331C10.0919 11.9194 10.3806 11.7357 10.8617 11.4382C12.7162 10.2486 11.1591 12.9953 10.3631 17.6228C10.0482 19.9147 12.1126 18.7337 12.6462 18.3838C13.1711 18.0427 14.5794 17.0717 14.7194 16.9755C14.9118 16.8443 14.7719 16.7393 14.6232 16.5206C14.5182 16.3719 14.4132 16.4769 14.4132 16.4769C13.8446 16.853 12.8037 17.6403 12.6637 17.1417C12.4975 16.6431 13.5647 13.2228 14.1508 10.8696C14.247 10.3098 14.5094 9.08513 13.4947 9.17261Z" fill="#1976D2"/>
</svg>
