<svg width="24" height="24" viewBox="0 0 24 24" fill="none" xmlns="http://www.w3.org/2000/svg">
<path d="M2 5.3999H4.22222H22" stroke="#646363" stroke-width="2" stroke-linecap="round" stroke-linejoin="round"/>
<path d="M19.7782 5.4V20.8C19.7782 21.3835 19.5441 21.9431 19.1273 22.3556C18.7106 22.7682 18.1454 23 17.556 23H6.44488C5.85551 23 5.29028 22.7682 4.87353 22.3556C4.45678 21.9431 4.22266 21.3835 4.22266 20.8V5.4M7.55599 5.4V3.2C7.55599 2.61652 7.79012 2.05695 8.20686 1.64436C8.62361 1.23178 9.18884 1 9.77821 1H14.2227C14.812 1 15.3773 1.23178 15.794 1.64436C16.2108 2.05695 16.4449 2.61652 16.4449 3.2V5.4" stroke="#646363" stroke-width="2" stroke-linecap="round" stroke-linejoin="round"/>
</svg>
