<svg width="25" height="24" viewBox="0 0 25 24" fill="none" xmlns="http://www.w3.org/2000/svg">
<path d="M11.5 11L3.5 6V16H13.5V18H3.5C2.95 18 2.47933 17.8043 2.088 17.413C1.696 17.021 1.5 16.55 1.5 16V4C1.5 3.45 1.696 2.979 2.088 2.587C2.47933 2.19567 2.95 2 3.5 2H19.5C20.05 2 20.521 2.19567 20.913 2.587C21.3043 2.979 21.5 3.45 21.5 4V9H19.5V6L11.5 11ZM11.5 9L19.5 4H3.5L11.5 9ZM19.5 22C18.4 22 17.4583 21.6083 16.675 20.825C15.8917 20.0417 15.5 19.1 15.5 18V13.5C15.5 12.8 15.7417 12.2083 16.225 11.725C16.7083 11.2417 17.3 11 18 11C18.7 11 19.2917 11.2417 19.775 11.725C20.2583 12.2083 20.5 12.8 20.5 13.5V18H18.5V13.5C18.5 13.3667 18.45 13.25 18.35 13.15C18.25 13.05 18.1333 13 18 13C17.8667 13 17.75 13.05 17.65 13.15C17.55 13.25 17.5 13.3667 17.5 13.5V18C17.5 18.55 17.6957 19.021 18.087 19.413C18.479 19.8043 18.95 20 19.5 20C20.05 20 20.521 19.8043 20.913 19.413C21.3043 19.021 21.5 18.55 21.5 18V14H23.5V18C23.5 19.1 23.1083 20.0417 22.325 20.825C21.5417 21.6083 20.6 22 19.5 22ZM3.5 6V4V16V10V6Z" fill="#1976D2"/>
</svg>
