<svg width="32" height="32" viewBox="0 0 32 32" fill="none" xmlns="http://www.w3.org/2000/svg">
<mask id="mask0_1902_4127" style="mask-type:alpha" maskUnits="userSpaceOnUse" x="0" y="0" width="32" height="32">
<rect width="32" height="32" fill="#D9D9D9"/>
</mask>
<g mask="url(#mask0_1902_4127)">
<path d="M11.6667 29.8997C10.6444 29.8997 9.728 29.6331 8.91733 29.0997C8.10578 28.5664 7.47778 27.8331 7.03333 26.8997C6.67778 27.3664 6.228 27.7273 5.684 27.9824C5.13911 28.2384 4.57778 28.3664 4 28.3664C2.86667 28.3664 1.91689 27.9775 1.15067 27.1997C0.383556 26.422 0 25.4775 0 24.3664C0 23.4109 0.311111 22.5495 0.933333 21.7824C1.55556 21.0162 2.34444 20.5775 3.3 20.4664C2.98889 20.022 2.75022 19.5495 2.584 19.0491C2.41689 18.5495 2.33333 18.022 2.33333 17.4664C2.33333 16.5775 2.56133 15.7442 3.01733 14.9664C3.47244 14.1886 4.11111 13.5553 4.93333 13.0664C5.04444 13.4664 5.19422 13.894 5.38267 14.3491C5.572 14.8051 5.78889 15.1997 6.03333 15.5331C5.72222 15.7775 5.47778 16.0717 5.3 16.4157C5.12222 16.7606 5.03333 17.122 5.03333 17.4997C5.03333 18.7442 5.54445 19.5109 6.56667 19.7997C7.58889 20.0886 8.55556 20.322 9.46667 20.4997L10.1 21.5664C9.85556 22.2775 9.64444 22.8833 9.46667 23.3837C9.28889 23.8833 9.2 24.3331 9.2 24.7331C9.2 25.3997 9.43911 25.9833 9.91733 26.4837C10.3947 26.9833 10.9778 27.2331 11.6667 27.2331C12.5111 27.2331 13.2111 26.8553 13.7667 26.0997C14.3222 25.3442 14.7778 24.4553 15.1333 23.4331C15.4889 22.4109 15.7613 21.3775 15.9507 20.3331C16.1391 19.2886 16.2889 18.4886 16.4 17.9331L19 18.6331C18.8 19.6331 18.5556 20.7775 18.2667 22.0664C17.9778 23.3553 17.5724 24.5829 17.0507 25.7491C16.528 26.9162 15.8391 27.8997 14.984 28.6997C14.128 29.4997 13.0222 29.8997 11.6667 29.8997ZM4 25.6997C4.37778 25.6997 4.69467 25.5717 4.95067 25.3157C5.20578 25.0606 5.33333 24.7442 5.33333 24.3664C5.33333 23.9886 5.20578 23.6717 4.95067 23.4157C4.69467 23.1606 4.37778 23.0331 4 23.0331C3.62222 23.0331 3.30578 23.1606 3.05067 23.4157C2.79467 23.6717 2.66667 23.9886 2.66667 24.3664C2.66667 24.7442 2.79467 25.0606 3.05067 25.3157C3.30578 25.5717 3.62222 25.6997 4 25.6997ZM13.4667 20.4331C12.4444 19.522 11.5169 18.6717 10.684 17.8824C9.85022 17.094 9.13333 16.3277 8.53333 15.5837C7.93333 14.8389 7.47244 14.094 7.15067 13.3491C6.828 12.6051 6.66667 11.8331 6.66667 11.0331C6.66667 9.58863 7.16133 8.37174 8.15067 7.38241C9.13911 6.39396 10.3556 5.89974 11.8 5.89974C11.8889 5.89974 11.9667 5.90507 12.0333 5.91574C12.1 5.92729 12.1778 5.93307 12.2667 5.93307C12.1778 5.71085 12.1111 5.48863 12.0667 5.26641C12.0222 5.04418 12 4.81085 12 4.56641C12 3.4553 12.3889 2.51085 13.1667 1.73307C13.9444 0.955295 14.8889 0.566406 16 0.566406C17.1111 0.566406 18.0556 0.955295 18.8333 1.73307C19.6111 2.51085 20 3.4553 20 4.56641C20 4.81085 19.9778 5.03841 19.9333 5.24907C19.8889 5.46063 19.8222 5.67752 19.7333 5.89974H20.2C21.5333 5.89974 22.6667 6.3273 23.6 7.18241C24.5333 8.03841 25.0889 9.09974 25.2667 10.3664C24.8667 10.2997 24.4169 10.2664 23.9173 10.2664C23.4169 10.2664 22.9556 10.2886 22.5333 10.3331C22.3778 9.82196 22.0947 9.39974 21.684 9.06641C21.2724 8.73307 20.7778 8.56641 20.2 8.56641C19.4222 8.56641 18.8169 8.79441 18.384 9.25041C17.9502 9.70552 17.3556 10.3664 16.6 11.2331H15.3667C14.5889 10.322 13.9836 9.64952 13.5507 9.21574C13.1169 8.78285 12.5333 8.56641 11.8 8.56641C11.0889 8.56641 10.5 8.79974 10.0333 9.26641C9.56667 9.73307 9.33333 10.322 9.33333 11.0331C9.33333 11.5442 9.47778 12.0717 9.76667 12.6157C10.0556 13.1606 10.4613 13.7384 10.984 14.3491C11.5058 14.9606 12.1391 15.6109 12.884 16.2997C13.628 16.9886 14.4556 17.7331 15.3667 18.5331L13.4667 20.4331ZM16 5.89974C16.3778 5.89974 16.6947 5.77174 16.9507 5.51574C17.2058 5.26063 17.3333 4.94418 17.3333 4.56641C17.3333 4.18863 17.2058 3.87174 16.9507 3.61574C16.6947 3.36063 16.3778 3.23307 16 3.23307C15.6222 3.23307 15.3058 3.36063 15.0507 3.61574C14.7947 3.87174 14.6667 4.18863 14.6667 4.56641C14.6667 4.94418 14.7947 5.26063 15.0507 5.51574C15.3058 5.77174 15.6222 5.89974 16 5.89974ZM20.3 29.8997C19.8111 29.8997 19.328 29.8331 18.8507 29.6997C18.3724 29.5664 17.9111 29.3553 17.4667 29.0664C17.7111 28.7553 17.9556 28.3886 18.2 27.9664C18.4444 27.5442 18.6667 27.1553 18.8667 26.7997C19.1111 26.9553 19.3556 27.0664 19.6 27.1331C19.8444 27.1997 20.0889 27.2331 20.3333 27.2331C21.0444 27.2331 21.6387 26.9833 22.116 26.4837C22.5942 25.9833 22.8333 25.3886 22.8333 24.6997C22.8333 24.2775 22.7444 23.822 22.5667 23.3331C22.3889 22.8442 22.1778 22.2442 21.9333 21.5331L22.5667 20.4664C23.5 20.2886 24.4724 20.0553 25.484 19.7664C26.4947 19.4775 27 18.7109 27 17.4664C27 16.5775 26.6724 15.9331 26.0173 15.5331C25.3613 15.1331 24.6444 14.9331 23.8667 14.9331C22.9333 14.9331 21.8444 15.1109 20.6 15.4664C19.3556 15.822 17.9 16.2775 16.2333 16.8331L15.5333 14.2331C17.2667 13.6775 18.8111 13.2109 20.1667 12.8331C21.5222 12.4553 22.7667 12.2664 23.9 12.2664C25.4333 12.2664 26.7778 12.722 27.9333 13.6331C29.0889 14.5442 29.6667 15.822 29.6667 17.4664C29.6667 18.022 29.5831 18.5495 29.416 19.0491C29.2498 19.5495 29.0111 20.022 28.7 20.4664C29.6556 20.5775 30.4444 21.0162 31.0667 21.7824C31.6889 22.5495 32 23.4109 32 24.3664C32 25.4775 31.6169 26.422 30.8507 27.1997C30.0836 27.9775 29.1333 28.3664 28 28.3664C27.4222 28.3664 26.8613 28.2384 26.3173 27.9824C25.7724 27.7273 25.3222 27.3664 24.9667 26.8997C24.5222 27.8331 23.8942 28.5664 23.0827 29.0997C22.272 29.6331 21.3444 29.8997 20.3 29.8997ZM28.0333 25.6997C28.4111 25.6997 28.7222 25.5717 28.9667 25.3157C29.2111 25.0606 29.3333 24.7442 29.3333 24.3664C29.3333 23.9886 29.2053 23.6664 28.9493 23.3997C28.6942 23.1331 28.3778 22.9997 28 22.9997C27.6222 22.9997 27.3058 23.1277 27.0507 23.3837C26.7947 23.6389 26.6667 23.9553 26.6667 24.3331C26.6667 24.7109 26.8 25.0331 27.0667 25.2997C27.3333 25.5664 27.6556 25.6997 28.0333 25.6997Z" fill="white"/>
</g>
</svg>
