<svg width="25" height="24" viewBox="0 0 25 24" fill="none" xmlns="http://www.w3.org/2000/svg">
<path d="M20.5 12C20.2333 12 19.996 11.904 19.788 11.712C19.5793 11.5207 19.4583 11.2833 19.425 11C19.2083 9.45 18.5543 8.129 17.463 7.037C16.371 5.94567 15.05 5.29167 13.5 5.075C13.2167 5.04167 12.9793 4.925 12.788 4.725C12.596 4.525 12.5 4.28333 12.5 4C12.5 3.71667 12.6 3.479 12.8 3.287C13 3.09567 13.2333 3.01667 13.5 3.05C15.6 3.28333 17.3917 4.14167 18.875 5.625C20.3583 7.10833 21.2167 8.9 21.45 11C21.4833 11.2667 21.404 11.5 21.212 11.7C21.0207 11.9 20.7833 12 20.5 12ZM16.325 12C16.1083 12 15.9167 11.925 15.75 11.775C15.5833 11.625 15.4583 11.425 15.375 11.175C15.2417 10.6917 14.9877 10.2623 14.613 9.887C14.2377 9.51233 13.8083 9.25833 13.325 9.125C13.075 9.04167 12.875 8.91667 12.725 8.75C12.575 8.58333 12.5 8.38333 12.5 8.15C12.5 7.81667 12.6167 7.54567 12.85 7.337C13.0833 7.129 13.3417 7.05833 13.625 7.125C14.5583 7.34167 15.3627 7.78733 16.038 8.462C16.7127 9.13733 17.1583 9.94167 17.375 10.875C17.4417 11.1583 17.3667 11.4167 17.15 11.65C16.9333 11.8833 16.6583 12 16.325 12ZM20.45 21C18.3 21 16.2043 20.5207 14.163 19.562C12.121 18.604 10.3127 17.3373 8.738 15.762C7.16267 14.1873 5.896 12.379 4.938 10.337C3.97933 8.29567 3.5 6.2 3.5 4.05C3.5 3.75 3.6 3.5 3.8 3.3C4 3.1 4.25 3 4.55 3H8.6C8.83333 3 9.04167 3.075 9.225 3.225C9.40833 3.375 9.51667 3.56667 9.55 3.8L10.2 7.3C10.2333 7.53333 10.2293 7.74567 10.188 7.937C10.146 8.129 10.05 8.3 9.9 8.45L7.5 10.9C8.2 12.1 9.075 13.225 10.125 14.275C11.175 15.325 12.3333 16.2333 13.6 17L15.95 14.65C16.1 14.5 16.296 14.3873 16.538 14.312C16.7793 14.2373 17.0167 14.2167 17.25 14.25L20.7 14.95C20.9333 15 21.125 15.1123 21.275 15.287C21.425 15.4623 21.5 15.6667 21.5 15.9V19.95C21.5 20.25 21.4 20.5 21.2 20.7C21 20.9 20.75 21 20.45 21ZM6.55 9L8.2 7.35L7.75 5H5.55C5.63333 5.68333 5.75 6.35833 5.9 7.025C6.05 7.69167 6.26667 8.35 6.55 9ZM19.5 18.95V16.75L17.15 16.25L15.5 17.9C16.15 18.1833 16.8083 18.4167 17.475 18.6C18.1417 18.7833 18.8167 18.9 19.5 18.95Z" fill="#1976D2"/>
</svg>
