<svg width="7" height="22" viewBox="0 0 7 22" fill="none" xmlns="http://www.w3.org/2000/svg">
<path d="M6.125 11C6.125 11.5192 5.97105 12.0267 5.68261 12.4584C5.39417 12.8901 4.9842 13.2265 4.50455 13.4252C4.02489 13.6239 3.49709 13.6758 2.98789 13.5746C2.47869 13.4733 2.01096 13.2233 1.64385 12.8562C1.27673 12.489 1.02673 12.0213 0.92544 11.5121C0.824154 11.0029 0.876137 10.4751 1.07482 9.99546C1.2735 9.5158 1.60995 9.10583 2.04163 8.81739C2.47331 8.52895 2.98083 8.375 3.5 8.375C4.19543 8.37747 4.86168 8.65483 5.35343 9.14657C5.84518 9.63832 6.12253 10.3046 6.125 11ZM3.5 6.125C4.01918 6.125 4.52669 5.97105 4.95837 5.68261C5.39005 5.39417 5.72651 4.9842 5.92519 4.50454C6.12387 4.02489 6.17585 3.49709 6.07456 2.98789C5.97328 2.47869 5.72327 2.01096 5.35616 1.64385C4.98904 1.27673 4.52131 1.02673 4.01211 0.92544C3.50291 0.824154 2.97511 0.876137 2.49546 1.07482C2.0158 1.2735 1.60583 1.60995 1.31739 2.04163C1.02895 2.47331 0.875001 2.98083 0.875001 3.5C0.877472 4.19543 1.15483 4.86168 1.64658 5.35343C2.13832 5.84517 2.80457 6.12253 3.5 6.125ZM3.5 15.875C2.98083 15.875 2.47331 16.029 2.04163 16.3174C1.60995 16.6058 1.2735 17.0158 1.07482 17.4955C0.876137 17.9751 0.824154 18.5029 0.92544 19.0121C1.02673 19.5213 1.27673 19.989 1.64385 20.3562C2.01096 20.7233 2.47869 20.9733 2.98789 21.0746C3.49709 21.1758 4.02489 21.1239 4.50455 20.9252C4.9842 20.7265 5.39417 20.3901 5.68261 19.9584C5.97105 19.5267 6.125 19.0192 6.125 18.5C6.12253 17.8046 5.84518 17.1383 5.35343 16.6466C4.86168 16.1548 4.19543 15.8775 3.5 15.875Z" fill="#1976D2"/>
</svg>
