<svg width="69" height="72" viewBox="0 0 69 72" fill="none" xmlns="http://www.w3.org/2000/svg">
<mask id="mask0_451_1559" style="mask-type:alpha" maskUnits="userSpaceOnUse" x="0" y="0" width="69" height="72">
<rect width="69" height="72" fill="#D9D9D9"/>
</mask>
<g mask="url(#mask0_451_1559)">
<path d="M31.625 33H37.375V18H31.625V33ZM34.5 45C35.3146 45 35.9979 44.712 36.5499 44.136C37.1 43.562 37.375 42.85 37.375 42C37.375 41.15 37.1 40.437 36.5499 39.861C35.9979 39.287 35.3146 39 34.5 39C33.6854 39 33.0031 39.287 32.453 39.861C31.901 40.437 31.625 41.15 31.625 42C31.625 42.85 31.901 43.562 32.453 44.136C33.0031 44.712 33.6854 45 34.5 45ZM34.5 58.05C40.3458 52.45 44.6823 47.362 47.5094 42.786C50.3365 38.212 51.75 34.15 51.75 30.6C51.75 25.15 50.0844 20.687 46.7532 17.211C43.424 13.737 39.3396 12 34.5 12C29.6604 12 25.575 13.737 22.2439 17.211C18.9146 20.687 17.25 25.15 17.25 30.6C17.25 34.15 18.6635 38.212 21.4906 42.786C24.3177 47.362 28.6542 52.45 34.5 58.05ZM34.5 66C26.7854 59.15 21.0239 52.787 17.2155 46.911C13.4052 41.037 11.5 35.6 11.5 30.6C11.5 23.1 13.8125 17.125 18.4374 12.675C23.0604 8.225 28.4146 6 34.5 6C40.5854 6 45.9396 8.225 50.5626 12.675C55.1875 17.125 57.5 23.1 57.5 30.6C57.5 35.6 55.5958 41.037 51.7874 46.911C47.977 52.787 42.2146 59.15 34.5 66Z" fill="#1976D2"/>
</g>
</svg>
