<svg width="33" height="32" viewBox="0 0 33 32" fill="none" xmlns="http://www.w3.org/2000/svg">
<path fill-rule="evenodd" clip-rule="evenodd" d="M17.7987 8.77016C18.3932 8.23154 19.172 7.94214 19.9739 7.96189C20.7758 7.98163 21.5395 8.309 22.1067 8.87623C22.6739 9.44345 23.0013 10.2071 23.021 11.009C23.0408 11.811 22.7514 12.5898 22.2128 13.1842C22.2069 13.1907 22.2008 13.1971 22.1946 13.2034L14.4368 21.0706C14.4286 21.0789 14.4201 21.087 14.4115 21.0949C14.0548 21.4181 13.5875 21.5917 13.1063 21.5799C12.6252 21.568 12.167 21.3716 11.8267 21.0313C11.4863 20.6909 11.2899 20.2328 11.278 19.7516C11.2662 19.2704 11.4398 18.8031 11.763 18.4465C11.7687 18.4402 11.7746 18.434 11.7806 18.4279L18.2884 11.8107C18.5304 11.5646 18.9261 11.5613 19.1722 11.8033C19.4183 12.0454 19.4216 12.4411 19.1796 12.6872L12.6823 19.2937C12.5791 19.4115 12.5238 19.564 12.5277 19.7208C12.5316 19.8812 12.5971 20.0339 12.7105 20.1474C12.824 20.2608 12.9767 20.3263 13.1371 20.3303C13.2926 20.3341 13.4438 20.2798 13.5612 20.1782L21.2947 12.3358C21.6126 11.9803 21.7832 11.5169 21.7714 11.0398C21.7596 10.5586 21.5631 10.1004 21.2228 9.76011C20.8825 9.41978 20.4243 9.22335 19.9431 9.21151C19.4674 9.19979 19.0053 9.3694 18.6502 9.68557L10.9025 17.5425C10.3173 18.1277 9.98853 18.9213 9.98853 19.7489C9.98853 20.5765 10.3173 21.3702 10.9025 21.9554C11.4877 22.5406 12.2814 22.8694 13.109 22.8694C13.9366 22.8694 14.7303 22.5406 15.3155 21.9554L21.7301 15.5565C21.9745 15.3127 22.3702 15.3132 22.614 15.5575C22.8577 15.8019 22.8573 16.1976 22.6129 16.4414L16.1994 22.8393C15.3797 23.6589 14.2681 24.1194 13.109 24.1194C11.9499 24.1194 10.8382 23.6589 10.0186 22.8393C9.19898 22.0197 8.73853 20.9081 8.73853 19.7489C8.73853 18.5906 9.19838 17.4796 10.017 16.6602L17.7733 8.79448C17.7816 8.78614 17.79 8.77803 17.7987 8.77016Z" fill="#646363"/>
</svg>
