<svg width="27" height="28" viewBox="0 0 27 28" fill="none" xmlns="http://www.w3.org/2000/svg">
<path d="M25.1913 11.056L14.0418 0.400003C13.9074 0.273256 13.7474 0.172654 13.5712 0.104C13.395 0.0353463 13.206 0 13.0151 0C12.8242 0 12.6352 0.0353463 12.4589 0.104C12.2827 0.172654 12.1228 0.273256 11.9883 0.400003L0.838906 11.0695C0.569117 11.3238 0.356045 11.6258 0.212061 11.9577C0.0680779 12.2897 -0.00394754 12.6451 0.000166828 13.0033V24.3354C-0.000953646 25.0277 0.281829 25.694 0.79028 26.1971C1.29873 26.7003 1.99414 27.0019 2.7333 27.04H7.23068V14.8694C7.23068 14.5108 7.38303 14.1668 7.65423 13.9132C7.92543 13.6596 8.29325 13.5172 8.67678 13.5172H17.3534C17.7369 13.5172 18.1047 13.6596 18.3759 13.9132C18.6471 14.1668 18.7995 14.5108 18.7995 14.8694V27.04H23.2969C24.036 27.0019 24.7314 26.7003 25.2399 26.1971C25.7483 25.694 26.0311 25.0277 26.03 24.3354V13.0033C26.0311 12.277 25.7304 11.5788 25.1913 11.056Z" fill="#1976D2"/>
</svg>
