<svg width="80" height="80" viewBox="0 0 80 80" fill="none" xmlns="http://www.w3.org/2000/svg">
<path fill-rule="evenodd" clip-rule="evenodd" d="M61.9738 9.46224C67.7582 9.46224 72.4477 14.1302 72.4477 19.8867C72.4477 25.6445 67.7582 30.3132 61.9738 30.3132C56.19 30.3132 51.5005 25.6452 51.5005 19.8867C51.5005 14.1302 56.19 9.46224 61.9738 9.46224ZM71.4647 33.9329C66.7522 33.9329 62.93 37.7376 62.93 42.4277C62.93 47.1198 66.7522 50.9232 71.4647 50.9245C76.1784 50.9245 80.0007 47.1198 80.0007 42.4277C80 37.7376 76.1784 33.9329 71.4647 33.9329ZM61.5689 58.5306C58.2777 58.5306 55.6079 61.1882 55.6079 64.4635C55.6079 67.7396 58.2777 70.3971 61.5689 70.3971C64.8594 70.3971 67.5293 67.7396 67.5293 64.4635C67.5293 61.1882 64.8594 58.5306 61.5689 58.5306ZM38.7688 68.1315C35.4776 68.1315 32.8078 70.7884 32.8078 74.0645C32.8078 77.3418 35.4776 79.9994 38.7688 79.9994C42.0599 79.9994 44.7291 77.3418 44.7291 74.0645C44.7298 70.7884 42.0606 68.1315 38.7688 68.1315ZM15.4696 59.1536C12.3844 59.1536 9.88399 61.6426 9.88399 64.7135C9.88399 67.7832 12.3844 70.2734 15.4696 70.2734C18.5528 70.2734 21.0538 67.7832 21.0538 64.7135C21.0538 61.6432 18.5528 59.1536 15.4696 59.1536ZM5.94923 35.724C2.66329 35.724 0 38.375 0 41.6458C0 44.9147 2.66329 47.5658 5.94923 47.5658C9.23321 47.5658 11.8965 44.9147 11.8965 41.6458C11.8965 38.375 9.23256 35.724 5.94923 35.724ZM15.4696 11.0846C11.3137 11.0846 7.94277 14.4408 7.94277 18.5775C7.94277 22.7142 11.3137 26.0684 15.4696 26.0684C19.6254 26.0684 22.9951 22.7142 22.9951 18.5775C22.9951 14.4408 19.6254 11.0846 15.4696 11.0846ZM38.8119 0C33.8078 0 29.7481 4.03971 29.7481 9.02018C29.7481 14.0013 33.8078 18.041 38.8119 18.041C43.816 18.041 47.8744 14.0013 47.8744 9.02018C47.8744 4.03971 43.816 0 38.8119 0Z" fill="#1976D2"/>
</svg>
