<svg width="33" height="32" viewBox="0 0 33 32" fill="none" xmlns="http://www.w3.org/2000/svg">
<path fill-rule="evenodd" clip-rule="evenodd" d="M16.2339 8.5C14.8532 8.5 13.7339 9.61929 13.7339 11V16C13.7339 17.3807 14.8532 18.5 16.2339 18.5C17.6146 18.5 18.7339 17.3807 18.7339 16V11C18.7339 9.61929 17.6146 8.5 16.2339 8.5ZM12.4839 11C12.4839 8.92893 14.1628 7.25 16.2339 7.25C18.305 7.25 19.9839 8.92893 19.9839 11V16C19.9839 18.0711 18.305 19.75 16.2339 19.75C14.1628 19.75 12.4839 18.0711 12.4839 16V11Z" fill="#646363"/>
<path fill-rule="evenodd" clip-rule="evenodd" d="M16.2339 21C16.5791 21 16.8589 21.2798 16.8589 21.625V24.125C16.8589 24.4702 16.5791 24.75 16.2339 24.75C15.8887 24.75 15.6089 24.4702 15.6089 24.125V21.625C15.6089 21.2798 15.8887 21 16.2339 21Z" fill="#646363"/>
<path fill-rule="evenodd" clip-rule="evenodd" d="M10.5666 16.0043C10.9094 15.9637 11.2202 16.2087 11.2607 16.5515C11.4049 17.7692 11.9908 18.8917 12.9074 19.7062C13.824 20.5207 15.0076 20.9706 16.2338 20.9706C17.46 20.9706 18.6436 20.5207 19.5602 19.7062C20.4768 18.8917 21.0628 17.7692 21.2069 16.5515C21.2475 16.2087 21.5583 15.9637 21.9011 16.0043C22.2438 16.0449 22.4888 16.3557 22.4482 16.6985C22.2681 18.2201 21.5359 19.6228 20.3905 20.6406C19.2451 21.6584 17.7661 22.2206 16.2338 22.2206C14.7015 22.2206 13.2225 21.6584 12.0771 20.6406C10.9317 19.6228 10.1996 18.2201 10.0194 16.6985C9.97883 16.3557 10.2238 16.0449 10.5666 16.0043Z" fill="#646363"/>
</svg>
