<svg width="36" height="36" viewBox="0 0 36 36" fill="none" xmlns="http://www.w3.org/2000/svg">
<mask id="mask0_1146_6257" style="mask-type:alpha" maskUnits="userSpaceOnUse" x="0" y="0" width="36" height="36">
<rect width="36" height="36" fill="#D9D9D9"/>
</mask>
<g mask="url(#mask0_1146_6257)">
<path d="M7.7625 24H30V11.85C30.575 11.725 31.1125 11.556 31.6125 11.343C32.1125 11.131 32.575 10.85 33 10.5V24C33 24.825 32.7065 25.5315 32.1195 26.1195C31.5315 26.7065 30.825 27 30 27H9L3 33V6C3 5.175 3.294 4.4685 3.882 3.8805C4.469 3.2935 5.175 3 6 3H21.15C21.05 3.5 21 4 21 4.5C21 5 21.05 5.5 21.15 6H6V25.7625L7.7625 24ZM9 21H21V18H9V21ZM9 16.5H27V13.5H9V16.5ZM9 12H27V11.85C26.075 11.65 25.231 11.306 24.468 10.818C23.706 10.331 23.05 9.725 22.5 9H9V12ZM28.5 9C27.25 9 26.1875 8.5625 25.3125 7.6875C24.4375 6.8125 24 5.75 24 4.5C24 3.25 24.4375 2.1875 25.3125 1.3125C26.1875 0.4375 27.25 0 28.5 0C29.75 0 30.8125 0.4375 31.6875 1.3125C32.5625 2.1875 33 3.25 33 4.5C33 5.75 32.5625 6.8125 31.6875 7.6875C30.8125 8.5625 29.75 9 28.5 9Z" fill="white"/>
</g>
</svg>
