<svg width="36" height="36" viewBox="0 0 36 36" fill="none" xmlns="http://www.w3.org/2000/svg">
<mask id="mask0_1060_4798" style="mask-type:alpha" maskUnits="userSpaceOnUse" x="1" y="1" width="34" height="34">
<rect x="1" y="1" width="34" height="34" fill="#D9D9D9"/>
</mask>
<g mask="url(#mask0_1060_4798)">
<path d="M19.4981 33.9375H16.4859C15.7758 33.9375 15.0948 33.6554 14.5927 33.1533C14.0905 32.6511 13.8084 31.9701 13.8084 31.26V29.5228C13.7998 29.4205 13.7623 29.3227 13.7002 29.2408C13.6381 29.159 13.5541 29.0965 13.4578 29.0606C13.3603 28.9981 13.2469 28.9649 13.1311 28.9649C13.0153 28.9649 12.9019 28.9981 12.8044 29.0606L11.625 30.3356C11.3776 30.5848 11.0834 30.7825 10.7592 30.9174C10.4351 31.0523 10.0875 31.1218 9.73641 31.1218C9.38531 31.1218 9.03769 31.0523 8.71356 30.9174C8.38943 30.7825 8.0952 30.5848 7.84781 30.3356L5.66438 28.2C5.41164 27.9531 5.21091 27.6581 5.07405 27.3323C4.93719 27.0066 4.86695 26.6568 4.8675 26.3034C4.86852 25.5807 5.15492 24.8876 5.66438 24.375L6.84375 23.1956C6.90069 23.1078 6.93099 23.0054 6.93099 22.9008C6.93099 22.7961 6.90069 22.6937 6.84375 22.6059C6.74812 22.3669 6.58875 22.1916 6.36562 22.1916H4.74C4.02842 22.1874 3.34742 21.9017 2.84575 21.3971C2.34407 20.8924 2.06249 20.2097 2.0625 19.4981V16.4859C2.0625 15.7758 2.34459 15.0948 2.84672 14.5927C3.34885 14.0905 4.02988 13.8084 4.74 13.8084H6.47719C6.57954 13.7998 6.67732 13.7623 6.75915 13.7002C6.84098 13.6381 6.90349 13.5541 6.93937 13.4578C7.00185 13.3603 7.03506 13.2469 7.03506 13.1311C7.03506 13.0153 7.00185 12.9019 6.93937 12.8044L5.66438 11.625C5.41525 11.3776 5.21753 11.0834 5.0826 10.7592C4.94768 10.4351 4.87821 10.0875 4.87821 9.73641C4.87821 9.38531 4.94768 9.03769 5.0826 8.71356C5.21753 8.38943 5.41525 8.0952 5.66438 7.84781L7.8 5.66438C8.04448 5.41283 8.33681 5.21275 8.65978 5.07589C8.98276 4.93904 9.32985 4.86818 9.68062 4.8675C10.0412 4.86592 10.3986 4.93549 10.7322 5.07223C11.0658 5.20897 11.3692 5.4102 11.625 5.66438L12.8044 6.84375C12.8922 6.90069 12.9946 6.93099 13.0992 6.93099C13.2039 6.93099 13.3063 6.90069 13.3941 6.84375C13.6331 6.74812 13.8084 6.58875 13.8084 6.36562V4.74C13.8126 4.02842 14.0983 3.34742 14.6029 2.84575C15.1076 2.34407 15.7903 2.06249 16.5019 2.0625H19.5937C20.3039 2.0625 20.9849 2.34459 21.487 2.84672C21.9892 3.34885 22.2712 4.02988 22.2712 4.74V6.47719C22.2799 6.57954 22.3174 6.67732 22.3795 6.75915C22.4416 6.84098 22.5256 6.90349 22.6219 6.93937C22.7194 7.00185 22.8328 7.03506 22.9486 7.03506C23.0644 7.03506 23.1778 7.00185 23.2753 6.93937L24.375 5.66438C24.6224 5.41525 24.9166 5.21753 25.2408 5.0826C25.5649 4.94768 25.9125 4.87821 26.2636 4.87821C26.6147 4.87821 26.9623 4.94768 27.2864 5.0826C27.6106 5.21753 27.9048 5.41525 28.1522 5.66438L30.3356 7.8C30.5876 8.04744 30.7879 8.34257 30.9247 8.66818C31.0615 8.99379 31.1322 9.34338 31.1325 9.69656C31.1402 10.0556 31.0733 10.4124 30.9362 10.7443C30.799 11.0762 30.5945 11.3761 30.3356 11.625L29.1562 12.8044C29.0993 12.8922 29.069 12.9946 29.069 13.0992C29.069 13.2039 29.0993 13.3063 29.1562 13.3941C29.2519 13.6331 29.4112 13.8084 29.6344 13.8084H31.3716C32.0636 13.8412 32.7163 14.1394 33.1942 14.641C33.6721 15.1426 33.9383 15.8091 33.9375 16.5019V19.5937C33.9375 20.3039 33.6554 20.9849 33.1533 21.487C32.6511 21.9892 31.9701 22.2712 31.26 22.2712H29.5228C29.4205 22.2799 29.3227 22.3174 29.2408 22.3795C29.159 22.4416 29.0965 22.5256 29.0606 22.6219C29.0037 22.7097 28.9734 22.8121 28.9734 22.9167C28.9734 23.0214 29.0037 23.1238 29.0606 23.2116L30.2878 24.4387C30.5369 24.6861 30.7347 24.9804 30.8696 25.3045C31.0045 25.6286 31.074 25.9763 31.074 26.3273C31.074 26.6784 31.0045 27.0261 30.8696 27.3502C30.7347 27.6743 30.5369 27.9685 30.2878 28.2159L28.2 30.3356C27.9555 30.5872 27.6632 30.7873 27.3402 30.9241C27.0172 31.061 26.6701 31.1318 26.3194 31.1325C25.6077 31.1232 24.9276 30.8374 24.4228 30.3356L23.1956 29.1562C23.1078 29.0993 23.0054 29.069 22.9008 29.069C22.7961 29.069 22.6937 29.0993 22.6059 29.1562C22.3669 29.2519 22.1916 29.4112 22.1916 29.6344V31.3716C22.1588 32.0636 21.8606 32.7163 21.359 33.1942C20.8574 33.6721 20.1909 33.9383 19.4981 33.9375ZM16.9959 30.75H19.0041V29.5228C19.0108 28.7879 19.2356 28.0714 19.6498 27.4643C20.064 26.8572 20.6491 26.3866 21.3309 26.1122C22.0156 25.8129 22.7738 25.7244 23.509 25.8578C24.2441 25.9912 24.9229 26.3405 25.4587 26.8612L26.3194 27.7219L27.7219 26.3194L26.8612 25.4428C26.3438 24.9151 25.9948 24.2455 25.8586 23.5191C25.7224 22.7927 25.8051 22.0421 26.0962 21.3628C26.3731 20.684 26.8448 20.1022 27.4517 19.691C28.0586 19.2797 28.7737 19.0574 29.5069 19.0519H30.75V16.9959H29.5228C28.7879 16.9891 28.0714 16.7644 27.4643 16.3502C26.8572 15.936 26.3866 15.3509 26.1122 14.6691C25.8129 13.9844 25.7244 13.2262 25.8578 12.491C25.9912 11.7559 26.3405 11.0771 26.8612 10.5412L27.7219 9.68062L26.3194 8.27812L25.4428 9.13875C24.9069 9.62829 24.2422 9.95451 23.5271 10.079C22.812 10.2035 22.0762 10.121 21.4064 9.84137C20.7365 9.56171 20.1606 9.09649 19.7462 8.50048C19.3319 7.90447 19.0966 7.20248 19.0678 6.47719V5.25H16.9959V6.47719C16.9891 7.21214 16.7644 7.92855 16.3502 8.53569C15.936 9.14284 15.3509 9.61341 14.6691 9.88781C13.9844 10.1871 13.2262 10.2756 12.491 10.1422C11.7559 10.0088 11.0771 9.65948 10.5412 9.13875L9.68062 8.27812L8.27812 9.68062L9.13875 10.5572C9.62829 11.0931 9.95451 11.7578 10.079 12.4729C10.2035 13.188 10.121 13.9238 9.84137 14.5936C9.56171 15.2635 9.09649 15.8394 8.50048 16.2538C7.90447 16.6681 7.20248 16.9034 6.47719 16.9322H5.25V18.9403H6.47719C7.21214 18.9471 7.92855 19.1718 8.53569 19.5861C9.14284 20.0003 9.61341 20.5853 9.88781 21.2672C10.1871 21.9518 10.2756 22.7101 10.1422 23.4452C10.0088 24.1804 9.65948 24.8592 9.13875 25.395L8.27812 26.2556L9.68062 27.6581L10.5572 26.7975C11.0931 26.308 11.7578 25.9817 12.4729 25.8573C13.188 25.7328 13.9238 25.8152 14.5936 26.0949C15.2635 26.3745 15.8394 26.8398 16.2538 27.4358C16.6681 28.0318 16.9034 28.7338 16.9322 29.4591L16.9959 30.75Z" fill="white"/>
<path d="M17.8592 22.7623C16.8895 22.7623 15.9417 22.4748 15.1354 21.9361C14.3292 21.3974 13.7008 20.6317 13.3297 19.7358C12.9587 18.84 12.8616 17.8542 13.0507 16.9032C13.2399 15.9522 13.7069 15.0786 14.3925 14.393C15.0781 13.7073 15.9517 13.2404 16.9027 13.0512C17.8538 12.8621 18.8395 12.9592 19.7354 13.3302C20.6312 13.7013 21.3969 14.3297 21.9356 15.1359C22.4743 15.9422 22.7618 16.89 22.7618 17.8597C22.7618 19.1599 22.2453 20.407 21.3259 21.3264C20.4065 22.2458 19.1595 22.7623 17.8592 22.7623ZM17.8592 15.7585C17.4436 15.7585 17.0374 15.8818 16.6919 16.1127C16.3463 16.3435 16.077 16.6717 15.918 17.0556C15.759 17.4395 15.7174 17.862 15.7984 18.2696C15.8795 18.6772 16.0796 19.0516 16.3735 19.3454C16.6673 19.6393 17.0417 19.8394 17.4493 19.9204C17.8569 20.0015 18.2793 19.9599 18.6633 19.8009C19.0472 19.6418 19.3753 19.3725 19.6062 19.027C19.8371 18.6815 19.9603 18.2752 19.9603 17.8597C19.9603 17.3024 19.739 16.768 19.3449 16.374C18.9509 15.9799 18.4164 15.7585 17.8592 15.7585Z" fill="white"/>
</g>
</svg>
