<svg width="24" height="24" viewBox="0 0 24 24" fill="none" xmlns="http://www.w3.org/2000/svg">
<path d="M13.0236 22H3.97635C3.43695 22 3 21.4755 3 20.8281C3 20.1807 3.43695 19.6562 3.97635 19.6562H12.0473V4.34378H3.97635C3.43695 4.34378 3 3.81932 3 3.17189C3 2.52446 3.43695 2 3.97635 2H13.0236C13.563 2 14 2.52446 14 3.17189V20.8281C14 21.4755 13.5629 22 13.0236 22Z" fill="#1976D2"/>
<path d="M16.7532 16.713C16.4575 16.713 16.1616 16.6002 15.9362 16.3745C15.4848 15.9235 15.4848 15.1918 15.9362 14.7406L18.8166 11.8599L15.9362 8.97933C15.4848 8.52828 15.4848 7.7966 15.9362 7.34538C16.3871 6.89399 17.1193 6.89399 17.5702 7.34538L21.2678 11.0431C21.7192 11.4941 21.7192 12.2258 21.2678 12.677L17.5702 16.3747C17.3448 16.6002 17.0487 16.713 16.7532 16.713Z" fill="#1976D2"/>
<path d="M9.06222 8H4.93745C4.41954 8 4 7.55246 4 7C4 6.44754 4.41954 6 4.93745 6H9.06255C9.58046 6 10 6.44754 10 7C9.99987 7.55246 9.58012 8 9.06222 8Z" fill="#1976D2"/>
<path d="M9.37481 13H6.62497C6.27969 13 6 12.5525 6 12C6 11.4475 6.27969 11 6.62497 11H9.37504C9.72031 11 10 11.4475 10 12C9.99991 12.5523 9.72022 13 9.37495 13H9.37481Z" fill="#1976D2"/>
<path d="M9.06222 18H4.93745C4.41954 18 4 17.5525 4 17C4 16.4475 4.41954 16 4.93745 16H9.06255C9.58046 16 10 16.4475 10 17C9.99987 17.5525 9.58032 18 9.06242 18H9.06222Z" fill="#1976D2"/>
</svg>
