<svg width="24" height="24" viewBox="0 0 24 24" fill="none" xmlns="http://www.w3.org/2000/svg">
<g clip-path="url(#clip0_2157_10091)">
<path fill-rule="evenodd" clip-rule="evenodd" d="M18.9475 5.05225H7.57905C6.90903 5.05225 6.26645 5.31841 5.79268 5.79219C5.3189 6.26596 5.05273 6.90854 5.05273 7.57856V21.4733C5.05273 22.1433 5.3189 22.7859 5.79268 23.2597C6.26645 23.7334 6.90903 23.9996 7.57905 23.9996H21.4738C22.8633 23.9996 24.0001 22.8628 24.0001 21.4733V10.1049L18.9475 5.05225ZM7.57905 9.4733C7.57905 8.97078 7.77867 8.48885 8.13401 8.13352C8.48934 7.77819 8.97127 7.57856 9.47379 7.57856H14.5264C15.0289 7.57856 15.5109 7.77819 15.8662 8.13352C16.2215 8.48885 16.4212 8.97078 16.4212 9.4733C16.4212 9.97581 16.2215 10.4577 15.8662 10.8131C15.5109 11.1684 15.0289 11.368 14.5264 11.368H9.47379C8.97127 11.368 8.48934 11.1684 8.13401 10.8131C7.77867 10.4577 7.57905 9.97581 7.57905 9.4733ZM14.5264 21.4733C15.3639 21.4733 16.1672 21.1406 16.7594 20.5484C17.3516 19.9562 17.6843 19.1529 17.6843 18.3154C17.6843 17.4779 17.3516 16.6747 16.7594 16.0824C16.1672 15.4902 15.3639 15.1575 14.5264 15.1575C13.6889 15.1575 12.8857 15.4902 12.2935 16.0824C11.7012 16.6747 11.3685 17.4779 11.3685 18.3154C11.3685 19.1529 11.7012 19.9562 12.2935 20.5484C12.8857 21.1406 13.6889 21.4733 14.5264 21.4733Z" fill="#1976D2"/>
<path d="M0 2.52632C0 1.8563 0.266165 1.21372 0.739941 0.739941C1.21372 0.266165 1.8563 0 2.52632 0H13.8947C14.2297 0 14.551 0.133082 14.7879 0.36997C15.0248 0.606858 15.1579 0.928148 15.1579 1.26316C15.1579 1.59817 15.0248 1.91946 14.7879 2.15635C14.551 2.39323 14.2297 2.52632 13.8947 2.52632H3.78947C3.45446 2.52632 3.13317 2.6594 2.89629 2.89629C2.6594 3.13317 2.52632 3.45446 2.52632 3.78947V13.8947C2.52632 14.2297 2.39323 14.551 2.15635 14.7879C1.91946 15.0248 1.59817 15.1579 1.26316 15.1579C0.928148 15.1579 0.606858 15.0248 0.36997 14.7879C0.133082 14.551 0 14.2297 0 13.8947V2.52632Z" fill="#1976D2"/>
</g>
<defs>
<clipPath id="clip0_2157_10091">
<rect width="24" height="24" fill="white"/>
</clipPath>
</defs>
</svg>
