<svg width="36" height="36" viewBox="0 0 36 36" fill="none" xmlns="http://www.w3.org/2000/svg">
<path d="M25.3336 14.5228L25.2306 13.9369L22.2625 12.9408C22.3331 13.0551 22.4037 13.1664 22.4772 13.2748C22.851 13.7774 23.1328 14.3417 23.3097 14.9418V14.9945C20.4507 15.9053 18.0061 17.7915 16.4063 20.321C14.8065 22.8506 14.1542 25.8612 14.5642 28.8226C14.4921 28.7681 14.4336 28.6976 14.3932 28.6168C14.3529 28.536 14.3319 28.447 14.3318 28.3568C14.3293 28.0712 14.2977 27.7865 14.2377 27.5072C14.1645 27.1674 14.0662 26.8335 13.9435 26.5082C13.8047 26.153 13.6868 25.7901 13.5905 25.4213C13.5125 25.1286 13.47 24.8276 13.464 24.5248C13.4614 24.3213 13.4802 24.118 13.5199 23.9183C13.5597 23.7244 13.6355 23.5396 13.7435 23.3734C13.7631 23.3307 13.776 23.2853 13.7817 23.2387C13.8047 23.0825 13.8146 22.9247 13.8111 22.767C13.8105 22.6039 13.7847 22.4418 13.7346 22.2865C13.6659 22.0825 13.5762 21.8862 13.4669 21.7006C13.3169 21.4398 13.2022 21.226 13.1257 21.0678C13.026 20.8961 12.9638 20.7054 12.9433 20.5082C12.9433 19.5414 12.6109 19.3363 12.1491 19.3363C11.8436 19.3449 11.539 19.3733 11.2372 19.4213C10.8284 19.4863 10.4156 19.5235 10.0017 19.5326C9.65228 19.5162 9.32305 19.3649 9.08388 19.1107C8.81551 18.8429 8.58314 18.5416 8.39259 18.2142C8.17785 17.8597 8.01311 17.5726 7.90427 17.3588C7.78043 17.152 7.70221 16.9213 7.67482 16.682V16.2221C7.66012 14.5844 7.64541 13.0346 9.23096 11.892C9.88989 10.9603 10.4812 10.3568 11.196 9.9701C11.9108 9.58338 12.7639 9.43104 13.8788 9.43104C14.0348 9.43104 14.1845 9.49277 14.2948 9.60265C14.4051 9.71254 14.4671 9.86157 14.4671 10.017V10.8519L15.179 11.1625V11.1156C15.1947 11.0395 15.2254 10.9674 15.2694 10.9032C15.3134 10.8391 15.3697 10.7843 15.4351 10.7421C15.5005 10.6998 15.5737 10.6709 15.6505 10.6571C15.7272 10.6433 15.8059 10.6448 15.882 10.6615C16.0815 10.7049 16.278 10.7606 16.4704 10.8285C16.6486 10.8916 16.8193 10.9741 16.9793 11.0746C17.0946 11.1358 17.2203 11.1755 17.3499 11.1918C17.5279 11.2239 17.7103 11.2239 17.8883 11.1918C17.9496 11.1848 18.0088 11.1648 18.0618 11.1332C18.0765 11.0453 18.0883 10.9574 18.1001 10.8666L17.397 10.931C17.276 10.9423 17.1545 10.9159 17.0491 10.8556C16.9438 10.7953 16.8598 10.7039 16.8087 10.5941C16.5763 10.1078 16.088 9.85877 15.4702 9.54529C12.3521 7.96033 9.46041 9.18787 9.22214 8.52576C9.08976 8.15662 9.28097 7.86072 9.53983 7.46229C9.7987 7.06385 10.1017 6.58338 10.1017 6.11463C10.1012 5.99215 10.1392 5.87259 10.2104 5.77274C10.2817 5.6729 10.3825 5.59779 10.4988 5.55799L12.8816 4.47401C12.6256 4.42713 12.2932 4.37147 12.0432 3.09412C12.0163 2.9703 12.0304 2.84114 12.0835 2.726C12.1365 2.61085 12.2256 2.51593 12.3373 2.45545C12.3373 2.45545 12.9963 2.07459 13.0433 2.05115C13.2963 1.88123 13.6023 1.65858 13.9553 1.38904H13.9788C12.7769 1.56576 11.6019 1.89153 10.4812 2.35877C9.5707 2.74528 8.69819 3.21507 7.87486 3.76209C7.06776 4.29915 6.31681 4.91552 5.63331 5.60193C4.94575 6.28231 4.3279 7.02915 3.78889 7.83143C3.23816 8.65205 2.76544 9.52202 2.3769 10.4301L2.35337 10.4623C1.9635 11.3724 1.6678 12.3196 1.47087 13.2894C1.07469 15.3045 1.07469 17.3769 1.47087 19.392C1.47087 19.4447 1.4944 19.4974 1.50323 19.5502L4.24779 20.8568C4.34526 20.903 4.4281 20.975 4.48725 21.0649C4.5464 21.1548 4.57957 21.2592 4.58314 21.3666C4.58906 22.0372 4.45482 22.7016 4.18896 23.3178C3.99991 23.7707 3.88184 24.25 3.8389 24.7387C3.84159 24.7938 3.83664 24.849 3.82419 24.9027C4.35553 25.6828 4.96032 26.4107 5.63037 27.0765C6.31532 27.7605 7.06611 28.3758 7.87192 28.9135C8.69517 29.4614 9.56768 29.9322 10.4782 30.3197H10.5076C11.4203 30.7084 12.3705 31.0029 13.3434 31.1986C13.9643 31.32 14.592 31.4042 15.2231 31.4506C15.3759 31.8638 15.5507 32.2687 15.7467 32.6635C14.8575 32.6305 13.9722 32.5277 13.0992 32.3558C12.0467 32.1458 11.0186 31.8287 10.0311 31.4096H9.99873C9.02504 30.9871 8.09252 30.4761 7.21298 29.8832C6.34285 29.3024 5.53197 28.6381 4.792 27.8998C4.04984 27.1636 3.38275 26.3559 2.8005 25.4887C2.20908 24.6087 1.70094 23.676 1.2826 22.7025C0.855777 21.7141 0.533399 20.6842 0.320681 19.6293C-0.106812 17.4625 -0.106812 15.2336 0.320681 13.0668C0.529243 12.0151 0.847695 10.988 1.27084 10.0023C1.26962 9.99162 1.26962 9.98081 1.27084 9.9701C1.6897 8.99688 2.19782 8.06422 2.78873 7.18397C3.37185 6.31737 4.03888 5.5098 4.78023 4.77283C5.51855 4.03384 6.32851 3.36947 7.19828 2.78944C8.08332 2.1995 9.02188 1.69338 10.0017 1.27772C12.0261 0.420177 14.2057 -0.0145679 16.4057 0.000372403C17.5148 -0.00308682 18.6214 0.10389 19.7091 0.319708C20.7595 0.529365 21.7856 0.845463 22.7714 1.26307L22.8038 1.27772C23.7776 1.69599 24.7111 2.202 25.5925 2.78944C26.4617 3.37022 27.2716 4.03453 28.0105 4.77283C28.7537 5.50893 29.4218 6.31659 30.0049 7.18397C30.5984 8.06108 31.1095 8.99079 31.5317 9.96131C31.9591 10.9535 32.2815 11.9874 32.4936 13.0463C32.666 13.9157 32.7692 14.7974 32.8025 15.683C30.489 14.5494 27.8849 14.1408 25.3336 14.5111V14.5228ZM25.7248 23.6928C25.7182 23.5835 25.7341 23.474 25.7715 23.371C25.8089 23.268 25.8671 23.1738 25.9425 23.0941C26.0178 23.0143 26.1088 22.9508 26.2097 22.9074C26.3106 22.864 26.4194 22.8415 26.5294 22.8415C26.6393 22.8415 26.7481 22.864 26.849 22.9074C26.95 22.9508 27.0409 23.0143 27.1163 23.0941C27.1916 23.1738 27.2498 23.268 27.2872 23.371C27.3247 23.474 27.3406 23.5835 27.3339 23.6928V27.6771L30.052 28.8666C30.2304 28.9623 30.3661 29.1215 30.4319 29.3124C30.4978 29.5032 30.4891 29.7118 30.4074 29.8966C30.3258 30.0813 30.1773 30.2286 29.9915 30.3092C29.8057 30.3898 29.5963 30.3977 29.4048 30.3314L26.2484 28.9515C26.0945 28.8942 25.9618 28.7913 25.8682 28.6567C25.7747 28.5222 25.7246 28.3623 25.7248 28.1986V23.6928ZM33.3378 20.5814C33.3638 20.652 33.3787 20.7261 33.382 20.8012C33.4111 20.9742 33.3762 21.1518 33.2837 21.3011C33.1912 21.4504 33.0473 21.5611 32.8789 21.6127L30.9375 22.1986C30.7573 22.2459 30.5658 22.2225 30.4025 22.1333C30.2392 22.044 30.1166 21.8957 30.06 21.7189C30.0033 21.5422 30.017 21.3505 30.0982 21.1835C30.1794 21.0166 30.3219 20.887 30.4962 20.8217C29.622 20.3728 28.6649 20.1067 27.6837 20.0396C26.7025 19.9725 25.7179 20.1059 24.7903 20.4316C23.8628 20.7573 23.0119 21.2684 22.2898 21.9335C21.5678 22.5987 20.99 23.4038 20.5917 24.2994C20.1935 25.195 19.9833 26.1623 19.9741 27.1418C19.9648 28.1212 20.1567 29.0922 20.538 29.9952C20.9193 30.8981 21.4818 31.7139 22.1912 32.3924C22.9005 33.0709 23.7416 33.5978 24.6629 33.9408L24.7276 33.9613C24.9159 34.0287 25.1071 34.0873 25.2983 34.14C25.3255 34.1466 25.352 34.1554 25.3777 34.1664C25.9686 34.3185 26.5765 34.3953 27.1868 34.3949C27.3735 34.3941 27.5546 34.4584 27.6987 34.5765L27.7811 34.4974C27.8957 34.4087 28.0315 34.3512 28.1752 34.3305C28.6749 34.2576 29.1671 34.141 29.6461 33.9818C29.8449 33.9366 30.0535 33.9681 30.2299 34.07C30.4063 34.1719 30.5374 34.3366 30.5967 34.5309C30.656 34.7252 30.6392 34.9347 30.5496 35.1171C30.4599 35.2996 30.3042 35.4414 30.1138 35.514C29.5547 35.7048 28.9784 35.8412 28.3929 35.9213C28.2829 35.9351 28.1712 35.9266 28.0646 35.8964C27.9579 35.8662 27.8585 35.8149 27.7722 35.7455C27.6969 35.8256 27.6057 35.8893 27.5045 35.9326C27.4032 35.976 27.2941 35.9981 27.1839 35.9974C25.8412 35.9994 24.5157 35.6961 23.3085 35.1108C22.1012 34.5255 21.044 33.6736 20.2172 32.6198C19.3905 31.5661 18.8161 30.3384 18.5378 29.0302C18.2595 27.722 18.2846 26.3678 18.6112 25.0707C18.9377 23.7736 19.5572 22.5678 20.4224 21.5452C21.2876 20.5225 22.3756 19.71 23.6038 19.1694C24.8319 18.6289 26.1677 18.3745 27.5094 18.4258C28.8511 18.477 30.1634 18.8325 31.3463 19.4652L31.2493 19.2074C31.1921 19.0302 31.2053 18.8379 31.2863 18.6702C31.3673 18.5024 31.5099 18.372 31.6846 18.3059C31.8593 18.2398 32.0528 18.2429 32.2252 18.3147C32.3976 18.3865 32.5358 18.5215 32.6113 18.6918L33.3349 20.5785L33.3378 20.5814ZM34.5998 22.4506C34.4828 22.2715 34.2991 22.146 34.0892 22.1018C33.8793 22.0575 33.6603 22.0982 33.4805 22.2147C33.3007 22.3313 33.1747 22.5142 33.1303 22.7233C33.0859 22.9323 33.1267 23.1504 33.2437 23.3295C33.5057 23.7337 33.7274 24.1625 33.9056 24.6097C33.9925 24.7945 34.1468 24.9393 34.3372 25.0148C34.5275 25.0904 34.7395 25.0908 34.9302 25.0162C35.1209 24.9416 35.2759 24.7975 35.3637 24.6131C35.4515 24.4288 35.4655 24.2181 35.4029 24.0238C35.1898 23.4763 34.9207 22.952 34.5998 22.4594V22.4506ZM32.0641 32.5404C31.9146 32.6827 31.8257 32.8768 31.8159 33.0826C31.8061 33.2883 31.876 33.49 32.0113 33.6458C32.1466 33.8016 32.3369 33.8996 32.5427 33.9197C32.7485 33.9397 32.9542 33.8801 33.1172 33.7533C33.5681 33.3492 33.9743 32.8985 34.3292 32.4086C34.4439 32.2364 34.4876 32.0268 34.4511 31.8234C34.4146 31.62 34.3007 31.4385 34.1332 31.3165C33.9657 31.1946 33.7574 31.1417 33.5517 31.1689C33.3461 31.196 33.1588 31.3011 33.029 31.4623C32.7455 31.8538 32.4222 32.2151 32.0641 32.5404ZM34.2115 28.8607C34.1753 29.0443 34.2045 29.2347 34.2943 29.3991C34.384 29.5635 34.5286 29.6915 34.703 29.761C34.8775 29.8304 35.0708 29.8371 35.2496 29.7797C35.4284 29.7223 35.5815 29.6045 35.6823 29.4467C35.7247 29.3758 35.7555 29.2987 35.7735 29.2181C35.9048 28.6466 35.9806 28.0639 36 27.4779C35.9958 27.2723 35.9124 27.0761 35.7671 26.9299C35.6218 26.7837 35.4257 26.6986 35.2192 26.6922C35.0128 26.6858 34.8118 26.7586 34.6576 26.8956C34.5035 27.0325 34.4081 27.2231 34.391 27.4281C34.3752 27.9116 34.3121 28.3924 34.2027 28.8637L34.2115 28.8607Z" fill="white"/>
</svg>
