<svg width="32" height="32" viewBox="0 0 32 32" fill="none" xmlns="http://www.w3.org/2000/svg">
<mask id="mask0_1638_6191" style="mask-type:alpha" maskUnits="userSpaceOnUse" x="0" y="0" width="32" height="32">
<rect width="32" height="32" fill="#D9D9D9"/>
</mask>
<g mask="url(#mask0_1638_6191)">
<path d="M16 31C13.925 31 11.975 30.606 10.15 29.818C8.325 29.031 6.7375 27.9625 5.3875 26.6125C4.0375 25.2625 2.969 23.675 2.182 21.85C1.394 20.025 1 18.075 1 16C1 13.925 1.394 11.975 2.182 10.15C2.969 8.325 4.0375 6.7375 5.3875 5.3875C6.7375 4.0375 8.325 2.9685 10.15 2.1805C11.975 1.3935 13.925 1 16 1C17.625 1 19.1625 1.2375 20.6125 1.7125C22.0625 2.1875 23.4 2.85 24.625 3.7L22.45 5.9125C21.5 5.3125 20.4875 4.8435 19.4125 4.5055C18.3375 4.1685 17.2 4 16 4C12.675 4 9.844 5.1685 7.507 7.5055C5.169 9.8435 4 12.675 4 16C4 19.325 5.169 22.1565 7.507 24.4945C9.844 26.8315 12.675 28 16 28C19.325 28 22.1565 26.8315 24.4945 24.4945C26.8315 22.1565 28 19.325 28 16C28 15.55 27.975 15.1 27.925 14.65C27.875 14.2 27.8 13.7625 27.7 13.3375L30.1375 10.9C30.4125 11.7 30.625 12.525 30.775 13.375C30.925 14.225 31 15.1 31 16C31 18.075 30.606 20.025 29.818 21.85C29.031 23.675 27.9625 25.2625 26.6125 26.6125C25.2625 27.9625 23.675 29.031 21.85 29.818C20.025 30.606 18.075 31 16 31ZM13.9 22.9L7.525 16.525L9.625 14.425L13.9 18.7L28.9 3.6625L31 5.7625L13.9 22.9Z" fill="#1976D2"/>
</g>
</svg>
