<svg fill="#000000" viewBox="0 0 32 32" version="1.1" xmlns="http://www.w3.org/2000/svg"><g id="SVGRepo_bgCarrier" stroke-width="0"></g><g id="SVGRepo_tracerCarrier" stroke-linecap="round" stroke-linejoin="round"></g><g id="SVGRepo_iconCarrier"> <title>user-group</title> <path d="M13 16.668c1.878-0 3.579-0.756 4.816-1.98l-0.001 0.001c0.991 0.95 2.339 1.536 3.824 1.536 3.053 0 5.528-2.475 5.528-5.528s-2.475-5.528-5.528-5.528c-1.077 0-2.082 0.308-2.932 0.841l0.023-0.013c-1.249-1.867-3.35-3.080-5.734-3.080-3.798 0-6.876 3.079-6.876 6.876s3.079 6.876 6.876 6.876c0.001 0 0.002 0 0.004 0h-0zM21.621 7.668c0.009-0 0.020-0 0.030-0 1.678 0 3.038 1.36 3.038 3.038s-1.36 3.038-3.038 3.038c-0.963 0-1.822-0.448-2.378-1.147l-0.005-0.006c0.386-0.821 0.611-1.784 0.611-2.799 0-0.51-0.057-1.007-0.165-1.485l0.009 0.045c0.512-0.423 1.175-0.68 1.898-0.684h0.001zM13 5.409c2.418 0 4.379 1.961 4.379 4.379s-1.961 4.379-4.379 4.379-4.379-1.961-4.379-4.379c0-0 0-0 0-0.001v0c0.003-2.417 1.962-4.376 4.38-4.379h0zM31.221 24.889c-0.983-4.445-4.891-7.721-9.563-7.721-1.746 0-3.384 0.457-4.803 1.258l0.049-0.025c-1.163-0.409-2.504-0.649-3.899-0.657h-0.004c-5.951 0.026-10.924 4.18-12.205 9.745l-0.016 0.085c-0.018 0.080-0.029 0.173-0.029 0.268 0 0.691 0.56 1.251 1.251 1.251 0.596 0 1.094-0.417 1.22-0.975l0.002-0.008c1.020-4.531 5.010-7.865 9.779-7.865s8.759 3.334 9.766 7.798l0.013 0.067c0.127 0.566 0.625 0.982 1.221 0.982 0.69 0 1.25-0.559 1.25-1.25 0-0.095-0.011-0.187-0.031-0.276l0.002 0.008c-0.746-3.232-2.667-5.923-5.279-7.656l-0.046-0.029c0.534-0.141 1.147-0.221 1.779-0.221 3.478 0 6.384 2.444 7.096 5.708l0.009 0.048c0.127 0.565 0.624 0.982 1.219 0.982h0c0.096-0 0.189-0.011 0.278-0.031l-0.008 0.002c0.566-0.126 0.982-0.624 0.982-1.219 0-0.095-0.011-0.188-0.031-0.277l0.002 0.008z"></path> </g></svg>