<svg width="26" height="25" viewBox="0 0 26 25" fill="none" xmlns="http://www.w3.org/2000/svg">
<circle cx="13.0049" cy="12.5" r="12.5" fill="#1976D2"/>
<path d="M13.0049 12.4286C13.7395 12.4286 14.4576 12.2107 15.0684 11.8026C15.6792 11.3945 16.1553 10.8144 16.4364 10.1357C16.7176 9.45699 16.7911 8.71017 16.6478 7.98967C16.5045 7.26917 16.1507 6.60734 15.6313 6.08789C15.1118 5.56844 14.45 5.21469 13.7295 5.07137C13.009 4.92805 12.2622 5.00161 11.5835 5.28273C10.9048 5.56386 10.3247 6.03993 9.91656 6.65074C9.50843 7.26155 9.29059 7.97967 9.29059 8.71429C9.29059 9.69938 9.68191 10.6441 10.3785 11.3407C11.075 12.0372 12.0198 12.4286 13.0049 12.4286Z" fill="white"/>
<path d="M18.5763 20.7143C18.8226 20.7143 19.0588 20.6165 19.2329 20.4424C19.4071 20.2682 19.5049 20.032 19.5049 19.7858C19.5049 18.0619 18.8201 16.4086 17.6011 15.1896C16.3821 13.9706 14.7288 13.2858 13.0049 13.2858C11.281 13.2858 9.62768 13.9706 8.40869 15.1896C7.1897 16.4086 6.50488 18.0619 6.50488 19.7858C6.50488 20.032 6.60271 20.2682 6.77686 20.4424C6.951 20.6165 7.18718 20.7143 7.43345 20.7143H18.5763Z" fill="white"/>
</svg>
