<svg width="153" height="192" viewBox="0 0 153 192" fill="none" xmlns="http://www.w3.org/2000/svg">
<g filter="url(#filter0_dd_403_974)">
<path d="M42.4112 130.826L42.4073 130.825C41.5576 130.473 41 129.64 41 128.717V23.2812C41 22.0199 42.0199 21 43.2812 21H108.906C110.168 21 111.188 22.0198 111.188 23.2812C111.188 23.2813 111.188 23.2813 111.188 23.2814V128.718C111.188 129.64 110.63 130.473 109.78 130.825L109.775 130.827C108.953 131.173 107.958 130.995 107.294 130.33C104.56 127.597 100.128 127.597 97.3942 130.33C96.5031 131.222 95.0596 131.222 94.1685 130.33C91.4349 127.597 87.0027 127.597 84.2692 130.33C83.3781 131.222 81.9346 131.222 81.0435 130.33C78.3099 127.597 73.8778 127.597 71.1442 130.33C70.2531 131.222 68.8096 131.222 67.9185 130.33C65.1849 127.597 60.7527 127.597 58.0192 130.33C57.1281 131.222 55.6846 131.222 54.7935 130.33C52.06 127.597 47.6278 127.597 44.8942 130.33C44.2376 130.987 43.2526 131.178 42.4112 130.826Z" fill="url(#paint0_linear_403_974)" stroke="url(#paint1_linear_403_974)" stroke-width="2"/>
<path d="M76.0941 55.3029C74.2868 55.3029 72.8128 53.832 72.8128 52.0216C72.8128 50.2112 74.2868 48.7404 76.0941 48.7404C77.9014 48.7404 79.3753 50.2112 79.3753 52.0216C79.3753 53.8353 80.8429 55.3029 82.6566 55.3029C84.4702 55.3029 85.9378 53.8353 85.9378 52.0216C85.9378 47.7494 83.1868 44.1414 79.3753 42.7823V38.8966C79.3753 37.0829 77.9077 35.6154 76.0941 35.6154C74.2804 35.6154 72.8128 37.0829 72.8128 38.8966V42.7823C69.0013 44.1414 66.2503 47.7494 66.2503 52.0216C66.2503 57.4497 70.666 61.8654 76.0941 61.8654C77.9014 61.8654 79.3753 63.3362 79.3753 65.1466C79.3753 66.957 77.9014 68.4279 76.0941 68.4279C74.2868 68.4279 72.8128 66.957 72.8128 65.1466C72.8128 63.333 71.3452 61.8654 69.5316 61.8654C67.7179 61.8654 66.2503 63.333 66.2503 65.1466C66.2503 69.4188 69.0013 73.0269 72.8128 74.3859V78.2716C72.8128 80.0853 74.2804 81.5529 76.0941 81.5529C77.9077 81.5529 79.3753 80.0853 79.3753 78.2716V74.3859C83.1868 73.0271 85.9378 69.4188 85.9378 65.1466C85.9378 59.7185 81.5224 55.3029 76.0941 55.3029ZM76.0941 88.1154H56.4066C54.5929 88.1154 53.1253 89.583 53.1253 91.3966C53.1253 93.2103 54.5929 94.6779 56.4066 94.6779H76.0941C77.9077 94.6779 79.3753 93.2103 79.3753 91.3966C79.3753 89.583 77.9077 88.1154 76.0941 88.1154ZM76.0941 101.24H56.4066C54.5929 101.24 53.1253 102.708 53.1253 104.522C53.1253 106.335 54.5929 107.803 56.4066 107.803H76.0941C77.9077 107.803 79.3753 106.335 79.3753 104.522C79.3753 102.708 77.9077 101.24 76.0941 101.24ZM89.2191 94.6779H95.7816C97.5952 94.6779 99.0628 93.2103 99.0628 91.3966C99.0628 89.583 97.5952 88.1154 95.7816 88.1154H89.2191C87.4054 88.1154 85.9378 89.583 85.9378 91.3966C85.9378 93.2103 87.4054 94.6779 89.2191 94.6779ZM95.7816 101.24H89.2191C87.4054 101.24 85.9378 102.708 85.9378 104.522C85.9378 106.335 87.4054 107.803 89.2191 107.803H95.7816C97.5952 107.803 99.0628 106.335 99.0628 104.522C99.0628 102.708 97.5952 101.24 95.7816 101.24Z" fill="white"/>
</g>
<defs>
<filter id="filter0_dd_403_974" x="0" y="0" width="152.188" height="192" filterUnits="userSpaceOnUse" color-interpolation-filters="sRGB">
<feFlood flood-opacity="0" result="BackgroundImageFix"/>
<feColorMatrix in="SourceAlpha" type="matrix" values="0 0 0 0 0 0 0 0 0 0 0 0 0 0 0 0 0 0 127 0" result="hardAlpha"/>
<feOffset dy="20"/>
<feGaussianBlur stdDeviation="20"/>
<feColorMatrix type="matrix" values="0 0 0 0 1 0 0 0 0 0.680498 0 0 0 0 0 0 0 0 0.29 0"/>
<feBlend mode="normal" in2="BackgroundImageFix" result="effect1_dropShadow_403_974"/>
<feColorMatrix in="SourceAlpha" type="matrix" values="0 0 0 0 0 0 0 0 0 0 0 0 0 0 0 0 0 0 127 0" result="hardAlpha"/>
<feOffset dy="5"/>
<feGaussianBlur stdDeviation="5"/>
<feColorMatrix type="matrix" values="0 0 0 0 1 0 0 0 0 0.680498 0 0 0 0 0 0 0 0 0.26 0"/>
<feBlend mode="normal" in2="effect1_dropShadow_403_974" result="effect2_dropShadow_403_974"/>
<feBlend mode="normal" in="SourceGraphic" in2="effect2_dropShadow_403_974" result="shape"/>
</filter>
<linearGradient id="paint0_linear_403_974" x1="76.0939" y1="-22.8026" x2="76.0939" y2="169.452" gradientUnits="userSpaceOnUse">
<stop offset="0.630208" stop-color="#FFAE00"/>
<stop offset="1" stop-color="#FFCD1E"/>
</linearGradient>
<linearGradient id="paint1_linear_403_974" x1="76.0939" y1="20" x2="76.0939" y2="132" gradientUnits="userSpaceOnUse">
<stop stop-color="#FF9F00"/>
<stop offset="1" stop-color="#FFB800"/>
</linearGradient>
</defs>
</svg>
